<?xml version="1.0" encoding="utf-8"?>
<!-- Generator: Adobe Illustrator 26.1.0, SVG Export Plug-In . SVG Version: 6.00 Build 0)  -->
<svg version="1.1" id="图层_1" xmlns="http://www.w3.org/2000/svg" xmlns:xlink="http://www.w3.org/1999/xlink" x="0px" y="0px"
	 width="1134px" height="976px" viewBox="0 0 1134 976" style="enable-background:new 0 0 1134 976;" xml:space="preserve">
<g id="地区">
	
		<path id="锅包肉" style="fill-rule:evenodd;clip-rule:evenodd;fill:#FFFFFF;stroke:#000000;stroke-width:4;stroke-linecap:round;stroke-linejoin:round;" d="
		M1100,33v158H894V33H1100z"/>
	
		<path id="牛肉面" style="fill-rule:evenodd;clip-rule:evenodd;fill:#FFFFFF;stroke:#000000;stroke-width:4;stroke-linecap:round;stroke-linejoin:round;" d="
		M585,191v371H351V191H585z"/>
	
		<path id="冷面" style="fill-rule:evenodd;clip-rule:evenodd;fill:#FFFFFF;stroke:#000000;stroke-width:4;stroke-linecap:round;stroke-linejoin:round;" d="
		M894,191v85h206v-85H894z"/>
	
		<path id="烤全羊" style="fill-rule:evenodd;clip-rule:evenodd;fill:#FFFFFF;stroke:#000000;stroke-width:4;stroke-linecap:round;stroke-linejoin:round;" d="
		M894,33H738v158H499v227h227l168-108V33z"/>
	
		<path id="黄焖鸡" style="fill-rule:evenodd;clip-rule:evenodd;fill:#FFFFFF;stroke:#000000;stroke-width:4;stroke-linecap:round;stroke-linejoin:round;" d="
		M779,446v92h139v-92H779z"/>
	
		<path id="驴肉火烧" style="fill-rule:evenodd;clip-rule:evenodd;fill:#FFFFFF;stroke:#000000;stroke-width:4;stroke-linecap:round;stroke-linejoin:round;" d="
		M861,310H726v180h117v-95h18V310z"/>
	
		<rect id="烤鸭" x="763" y="336" style="fill-rule:evenodd;clip-rule:evenodd;fill:#FFFFFF;stroke:#000000;stroke-width:4;stroke-linecap:round;stroke-linejoin:round;" width="80" height="52"/>
	
		<path id="煎饼果子" style="fill-rule:evenodd;clip-rule:evenodd;fill:#FFFFFF;stroke:#000000;stroke-width:4;stroke-linecap:round;stroke-linejoin:round;" d="
		M763,388h80v43h-80V388z"/>
	
		<path id="酥油茶" style="fill-rule:evenodd;clip-rule:evenodd;fill:#FFFFFF;stroke:#000000;stroke-width:4;stroke-linecap:round;stroke-linejoin:round;" d="
		M389,770H35V466h354V770z"/>
	
		<path id="羊肉串" style="fill-rule:evenodd;clip-rule:evenodd;fill:#FFFFFF;stroke:#000000;stroke-width:4;stroke-linecap:round;stroke-linejoin:round;" d="
		M35,466V87h316v379H35z"/>
	
		<path id="烩面" style="fill-rule:evenodd;clip-rule:evenodd;fill:#FFFFFF;stroke:#000000;stroke-width:4;stroke-linecap:round;stroke-linejoin:round;" d="
		M779,490H654v117h125V490z"/>
	
		<path id="牛肉汤" style="fill-rule:evenodd;clip-rule:evenodd;fill:#FFFFFF;stroke:#000000;stroke-width:4;stroke-linecap:round;stroke-linejoin:round;" d="
		M852,538h-73v138h73V538z"/>
	
		<path id="刀削面" style="fill-rule:evenodd;clip-rule:evenodd;fill:#FFFFFF;stroke:#000000;stroke-width:4;stroke-linecap:round;stroke-linejoin:round;" d="
		M654,418v108h72V418H654z"/>
	
		<path id="热干面" style="fill-rule:evenodd;clip-rule:evenodd;fill:#FFFFFF;stroke:#000000;stroke-width:4;stroke-linecap:round;stroke-linejoin:round;" d="
		M779,688v-81H654v81H779z"/>
	
		<path id="青稞" style="fill-rule:evenodd;clip-rule:evenodd;fill:#FFFFFF;stroke:#000000;stroke-width:4;stroke-linecap:round;stroke-linejoin:round;" d="
		M442,626V395H228v231H442z"/>
	
		<path id="小鸡炖蘑菇" style="fill-rule:evenodd;clip-rule:evenodd;fill:#FFFFFF;stroke:#000000;stroke-width:4;stroke-linecap:round;stroke-linejoin:round;" d="
		M861,276v119h154V276H861z"/>
	
		<path id="肠粉" style="fill-rule:evenodd;clip-rule:evenodd;fill:#FFFFFF;stroke:#000000;stroke-width:4;stroke-linecap:round;stroke-linejoin:round;" d="
		M823,788H679v81h144V788z"/>
	
		<path id="大闸蟹" style="fill-rule:evenodd;clip-rule:evenodd;fill:#FFFFFF;stroke:#000000;stroke-width:4;stroke-linecap:round;stroke-linejoin:round;" d="
		M899,538v87h-62v-87H899z"/>
	
		<path id="瓦罐汤" style="fill-rule:evenodd;clip-rule:evenodd;fill:#FFFFFF;stroke:#000000;stroke-width:4;stroke-linecap:round;stroke-linejoin:round;" d="
		M852,806V676H749v130H852z"/>
	
		<path id="小笼包" style="fill-rule:evenodd;clip-rule:evenodd;fill:#FFFFFF;stroke:#000000;stroke-width:4;stroke-linecap:round;stroke-linejoin:round;" d="
		M852,625l74,1v107h-74V625z"/>
	
		<path id="沙县小吃" style="fill-rule:evenodd;clip-rule:evenodd;fill:#FFFFFF;stroke:#000000;stroke-width:4;stroke-linecap:round;stroke-linejoin:round;" d="
		M823,733v107h73V733H823z"/>
	
		<rect id="生煎包" x="882" y="602" style="fill-rule:evenodd;clip-rule:evenodd;fill:#FFFFFF;stroke:#000000;stroke-width:4;stroke-linecap:round;stroke-linejoin:round;" width="72" height="47"/>
	
		<path id="肉夹馍" style="fill-rule:evenodd;clip-rule:evenodd;fill:#FFFFFF;stroke:#000000;stroke-width:4;stroke-linecap:round;stroke-linejoin:round;" d="
		M585,653h69V418h-69V653z"/>
	
		<path id="臭豆腐" style="fill-rule:evenodd;clip-rule:evenodd;fill:#FFFFFF;stroke:#000000;stroke-width:4;stroke-linecap:round;stroke-linejoin:round;" d="
		M654,688h95v100h-95V688z"/>
	
		<path id="螺蛳粉" style="fill-rule:evenodd;clip-rule:evenodd;fill:#FFFFFF;stroke:#000000;stroke-width:4;stroke-linecap:round;stroke-linejoin:round;" d="
		M679,788H537v81h142V788z"/>
	
		<rect id="鸡蛋仔" x="758" y="856" style="fill-rule:evenodd;clip-rule:evenodd;fill:#FFFFFF;stroke:#000000;stroke-width:4;stroke-linecap:round;stroke-linejoin:round;" width="42" height="33"/>
	
		<rect id="蛋挞" x="701" y="856" style="fill-rule:evenodd;clip-rule:evenodd;fill:#FFFFFF;stroke:#000000;stroke-width:4;stroke-linecap:round;stroke-linejoin:round;" width="45" height="33"/>
	
		<path id="肠旺面" style="fill-rule:evenodd;clip-rule:evenodd;fill:#FFFFFF;stroke:#000000;stroke-width:4;stroke-linecap:round;stroke-linejoin:round;" d="
		M654,709H537v79h117V709z"/>
	
		<rect id="火锅" x="565" y="653" style="fill-rule:evenodd;clip-rule:evenodd;fill:#FFFFFF;stroke:#000000;stroke-width:4;stroke-linecap:round;stroke-linejoin:round;" width="89" height="56"/>
	
		<path id="毛血旺" style="fill-rule:evenodd;clip-rule:evenodd;fill:#FFFFFF;stroke:#000000;stroke-width:4;stroke-linecap:round;stroke-linejoin:round;" d="
		M565,737v-84h20v-91H389v175H565z"/>
	
		<path id="过桥米线" style="fill-rule:evenodd;clip-rule:evenodd;fill:#FFFFFF;stroke:#000000;stroke-width:4;stroke-linecap:round;stroke-linejoin:round;" d="
		M537,737H389v115h148V737z"/>
	
		<path id="羊杂碎" style="fill-rule:evenodd;clip-rule:evenodd;fill:#FFFFFF;stroke:#000000;stroke-width:4;stroke-linecap:round;stroke-linejoin:round;" d="
		M585,418h-86v96h86V418z"/>
	
		<rect id="卤肉饭" x="918" y="788" style="fill-rule:evenodd;clip-rule:evenodd;fill:#FFFFFF;stroke:#000000;stroke-width:4;stroke-linecap:round;stroke-linejoin:round;" width="45" height="87"/>
	
		<rect id="清补凉" x="615" y="897" style="fill-rule:evenodd;clip-rule:evenodd;fill:#FFFFFF;stroke:#000000;stroke-width:4;stroke-linecap:round;stroke-linejoin:round;" width="78" height="46"/>
	
		<polyline id="曾母暗沙_00000139999141534960862240000009738157315670908301_" style="fill-rule:evenodd;clip-rule:evenodd;fill:#FFFFFF;stroke:#000000;stroke-width:4;stroke-linecap:round;stroke-linejoin:round;" points="
		827.7,941.5 827.7,897 908.3,897 908.3,941.5 	"/>
</g>
<g id="地名">
	<text x="659" y="266" style="fill:#111111; font-family:'Tensentype-JiaLiDaYuanJF'; font-size:30px;">烤全羊</text>
	<text x="951" y="123" style="fill:#111111; font-family:'Tensentype-JiaLiDaYuanJF'; font-size:30px;">锅包肉</text>
	<text x="966" y="242" style="fill:#111111; font-family:'Tensentype-JiaLiDaYuanJF'; font-size:30px;">冷面</text>
	<text x="906" y="347" style="fill:#111111; font-family:'Tensentype-JiaLiDaYuanJF'; font-size:30px;">小鸡炖蘑菇</text>
	<text x="773" y="371" style="fill:#111111; font-family:'Tensentype-JiaLiDaYuanJF'; font-size:30px;">烤鸭</text>
	<text x="773" y="419" style="fill:#111111; font-family:'Tensentype-JiaLiDaYuanJF'; font-size:30px;">煎饼果子</text>
	<text x="753" y="469" style="fill:#111111; font-family:'Tensentype-JiaLiDaYuanJF'; font-size:30px;">驴肉火烧</text>
	<text x="861" y="488" style="fill:#111111; font-family:'Tensentype-JiaLiDaYuanJF'; font-size:30px;">山</text>
	<text x="861" y="518" style="fill:#111111; font-family:'Tensentype-JiaLiDaYuanJF'; font-size:30px;">东</text>
	<text x="687" y="579" style="fill:#111111; font-family:'Tensentype-JiaLiDaYuanJF'; font-size:30px;">烩面</text>
	<text x="684" y="658" style="fill:#111111; font-family:'Tensentype-JiaLiDaYuanJF'; font-size:30px;">热干面</text>
	<text x="684" y="735" style="fill:#111111; font-family:'Tensentype-JiaLiDaYuanJF'; font-size:30px;">湖</text>
	<text x="684" y="765" style="fill:#111111; font-family:'Tensentype-JiaLiDaYuanJF'; font-size:30px;">南</text>
	<text x="846" y="575" style="fill:#111111; font-family:'Tensentype-JiaLiDaYuanJF'; font-size:30px;">江</text>
	<text x="846" y="605" style="fill:#111111; font-family:'Tensentype-JiaLiDaYuanJF'; font-size:30px;">苏</text>
	<text x="888" y="635" style="fill:#111111; font-family:'Tensentype-JiaLiDaYuanJF'; font-size:30px;">生煎包</text>
	<text x="872" y="685" style="fill:#111111; font-family:'Tensentype-JiaLiDaYuanJF'; font-size:30px;">浙</text>
	<text x="872" y="715" style="fill:#111111; font-family:'Tensentype-JiaLiDaYuanJF'; font-size:30px;">江</text>
	<text x="844" y="783" style="fill:#111111; font-family:'Tensentype-JiaLiDaYuanJF'; font-size:30px;">福</text>
	<text x="844" y="813" style="fill:#111111; font-family:'Tensentype-JiaLiDaYuanJF'; font-size:30px;">建</text>
	<text x="925" y="826" style="fill:#111111; font-family:'Tensentype-JiaLiDaYuanJF'; font-size:30px;">台</text>
	<text x="925" y="856" style="fill:#111111; font-family:'Tensentype-JiaLiDaYuanJF'; font-size:30px;">湾</text>
	<text x="625" y="930" style="fill:#111111; font-family:'Tensentype-JiaLiDaYuanJF'; font-size:30px;">清补凉</text>
	<text x="721" y="842" style="fill:#111111; font-family:'Tensentype-JiaLiDaYuanJF'; font-size:30px;">肠粉</text>
	<text x="772" y="736" style="fill:#111111; font-family:'Tensentype-JiaLiDaYuanJF'; font-size:30px;">江</text>
	<text x="772" y="766" style="fill:#111111; font-family:'Tensentype-JiaLiDaYuanJF'; font-size:30px;">西</text>
	<text x="793" y="603" style="fill:#111111; font-family:'Tensentype-JiaLiDaYuanJF'; font-size:30px;">安</text>
	<text x="793" y="633" style="fill:#111111; font-family:'Tensentype-JiaLiDaYuanJF'; font-size:30px;">徽</text>
	<text x="675" y="466" style="fill:#111111; font-family:'Tensentype-JiaLiDaYuanJF'; font-size:30px;">山</text>
	<text x="675" y="496" style="fill:#111111; font-family:'Tensentype-JiaLiDaYuanJF'; font-size:30px;">西</text>
	<text x="604" y="536" style="fill:#111111; font-family:'Tensentype-JiaLiDaYuanJF'; font-size:30px;">陕</text>
	<text x="604" y="566" style="fill:#111111; font-family:'Tensentype-JiaLiDaYuanJF'; font-size:30px;">西</text>
	<text x="527" y="460" style="fill:#111111; font-family:'Tensentype-JiaLiDaYuanJF'; font-size:30px;">宁</text>
	<text x="527" y="490" style="fill:#111111; font-family:'Tensentype-JiaLiDaYuanJF'; font-size:30px;">夏</text>
	<text x="409" y="304" style="fill:#111111; font-family:'Tensentype-JiaLiDaYuanJF'; font-size:30px;">甘</text>
	<text x="409" y="334" style="fill:#111111; font-family:'Tensentype-JiaLiDaYuanJF'; font-size:30px;">肃</text>
	<text x="301" y="520" style="fill:#111111; font-family:'Tensentype-JiaLiDaYuanJF'; font-size:30px;">青稞</text>
	<text x="453" y="660" style="fill:#111111; font-family:'Tensentype-JiaLiDaYuanJF'; font-size:30px;">毛血旺</text>
	<text x="432" y="805" style="fill:#111111; font-family:'Tensentype-JiaLiDaYuanJF'; font-size:30px;">过桥米线</text>
	<text x="579" y="839" style="fill:#111111; font-family:'Tensentype-JiaLiDaYuanJF'; font-size:30px;">螺蛳粉</text>
	<text x="568" y="759" style="fill:#111111; font-family:'Tensentype-JiaLiDaYuanJF'; font-size:30px;">肠旺面</text>
	<text x="579" y="691" style="fill:#111111; font-family:'Tensentype-JiaLiDaYuanJF'; font-size:30px;">火锅</text>
	<text x="104" y="639" style="fill:#111111; font-family:'Tensentype-JiaLiDaYuanJF'; font-size:30px;">酥油茶</text>
	<text x="163" y="288" style="fill:#111111; font-family:'Tensentype-JiaLiDaYuanJF'; font-size:30px;">羊肉串</text>

	<text x="764" y="882" style="fill:#111111; font-family:'Tensentype-JiaLiDaYuanJF'; font-size:30px;">港</text>
	<text x="708" y="882" style="fill:#111111; font-family:'Tensentype-JiaLiDaYuanJF'; font-size:30px;">澳</text>
</g>
<text x="425" y="119" style="fill:#111111; font-family:'Tensentype-JiaLiDaYuanJF'; font-size:60px;">吃货制霸</text>
<text id="ThusLab" x="37" y="937" style="fill:#111111; font-family:'Tensentype-JiaLiDaYuanJF'; font-size:29.4198px;">ThusLab试验场</text>
<text id="分数" transform="matrix(1 0 0 1 35 883.5577)" style="fill:#111111; font-family:'Tensentype-JiaLiDaYuanJF'; font-size:60px;">分数</text>
<g id="等级">
	<rect x="983" y="655" style="fill-rule:evenodd;clip-rule:evenodd;fill:#88AEFF;" width="120" height="50"/>
	<rect x="983" y="605" style="fill-rule:evenodd;clip-rule:evenodd;fill:#A8FFBE;" width="120" height="50"/>
	<rect x="983" y="555" style="fill-rule:evenodd;clip-rule:evenodd;fill:#FFE57E;" width="120" height="50"/>
	<rect x="983" y="505" style="fill-rule:evenodd;clip-rule:evenodd;fill:#FFB57E;" width="120" height="50"/>
	<rect x="983" y="455" style="fill-rule:evenodd;clip-rule:evenodd;fill:#FF7E7E;" width="120" height="50"/>
	
		<rect x="983" y="455" style="fill:none;stroke:#000000;stroke-width:4;stroke-linecap:round;stroke-linejoin:round;stroke-miterlimit:10;" width="120" height="250"/>
	<text transform="matrix(1 0 0 1 998.5709 489.6172)" style="font-family:'Tensentype-JiaLiDaYuanJ'; font-size:30px;">5 会做</text>
	<text transform="matrix(1 0 0 1 998.6002 540.0001)" style="font-family:'Tensentype-JiaLiDaYuanJ'; font-size:30px;">4 住宿</text>
	<text transform="matrix(1 0 0 1 998.6002 590.0001)" style="font-family:'Tensentype-JiaLiDaYuanJ'; font-size:30px;">3 游玩</text>
	<text transform="matrix(1 0 0 1 998.6002 640.0001)" style="font-family:'Tensentype-JiaLiDaYuanJ'; font-size:30px;">2 换乘</text>
	<text transform="matrix(1 0 0 1 998.6002 690.0001)" style="font-family:'Tensentype-JiaLiDaYuanJ'; font-size:30px;">1 害怕</text>
</g>
</svg>
