<?xml version="1.0" encoding="utf-8"?>
<svg xmlns="http://www.w3.org/2000/svg" viewBox="0 0 1548 1210">
<style type="text/css">
svg{
	fill: #D9A9A9;
}
#地区 *{
    fill:#FFF;
    fill-rule:evenodd;
    clip-rule:evenodd;
    stroke:#000000;
    stroke-width:4;
    stroke-linecap:round;
    stroke-linejoin:round;
}
#地区 .st1{fill:#FFFFFF;}
#地区 .st2{fill:#FFB57E;}
#地区 .st3{fill:#FF7E7E;}
#地区 .st4{fill:#FFE57E;}
#地区 .st5{fill:#88AEFF;}
#地区 .st6{fill:#A8FFBE;}
#地名 *{
    fill:#111111;
    font-family:'Tensentype-JiaLiDaYuanJF';
    font-size:30px;
}
</style>
<g xmlns="http://www.w3.org/2000/svg" id="地区">
	<path id="锅包肉" d="M 1308,150 1308,308 1102,308 1102,150z"/>
	<path id="牛肉面" d="M 793,308 793,679 559,679 559,308z"/>
	<path id="冷面" d="M 1102,308 1102,393 1308,393 1308,308z"/>
	<path id="烤全羊" d="M 1102,150 946,150 946,308 707,308 707,535 934,535 1102,427z"/>
	<path id="黄焖鸡" d="M 987,563 987,655 1126,655 1126,563z"/>
	<path id="驴肉火烧" d="M1069,427H934v180h117c0-39.3,0-71,0-95h18V427z"/>
	<rect id="烤鸭" x="971" y="453" width="80" height="52"/>
	<path id="煎饼果子" d="M 971,505 1051,505 1051,548 971,548z"/>
	<path id="酥油茶" d="M 597,887 243,887 243,583 597,583z"/>
	<path id="羊肉串" d="M 243,583 243,204 559,204 559,583z"/>
	<path id="烩面" d="M 987,607 862,607 862,724 987,724z"/>
	<path id="牛肉汤" d="M 1060,655 987,655 987,793 1060,793z"/>
	<path id="刀削面" d="M 862,535 862,643 934,643 934,535z"/>
	<path id="热干面" d="M 987,805 987,724 862,724 862,805z"/>
	<path id="青稞" d="M 650,743 650,512 436,512 436,743z"/>
	<path id="小鸡炖蘑菇" d="M 1069,393 1069,512 1223,512 1223,393z"/>
	<path id="肠粉" d="M 1031,905 887,905 887,986 1031,986z"/>
	<path id="大闸蟹" d="M 1107,655 1107,742 1045,742 1045,655z"/>
	<path id="瓦罐汤" d="M 1060,923 1060,793 957,793 957,923z"/>
	<path id="小笼包" d="M 1060,742 1134,743 1134,850 1060,850z"/>
	<path id="沙县小吃" d="M 1031,850 1031,957 1104,957 1104,850z"/>
	<rect id="生煎包" x="1090" y="719" width="72" height="47"/>
	<path id="肉夹馍" d="M 793,770 862,770 862,535 793,535z"/>
	<path id="臭豆腐" d="M 862,805 957,805 957,905 862,905z"/>
	<path id="螺蛳粉" d="M 887,905 745,905 745,986 887,986z"/>
	<rect id="鸡蛋仔" x="966" y="973" width="42" height="33"/>
	<rect id="蛋挞" x="909" y="973" width="45" height="33"/>
	<path id="肠旺面" d="M 862,826 745,826 745,905 862,905z"/>
	<rect id="火锅" x="773" y="770" width="89" height="56"/>
	<path id="毛血旺" d="M 773,854 773,770 793,770 793,679 597,679 597,854z"/>
	<path id="过桥米线" d="M 745,854 597,854 597,969 745,969z"/>
	<path id="羊杂碎" d="M 793,535 707,535 707,631 793,631z"/>
	<rect id="卤肉饭" x="1126" y="905" width="45" height="87"/>
	<rect id="清补凉" x="823" y="1014" width="78" height="46"/>
</g>
<g id="地名">
	<text x="867" y="383">烤全羊</text>
	<text x="1159" y="240">锅包肉</text>
	<text x="1174" y="359">冷面</text>
	<text x="1114" y="464">小鸡炖蘑菇</text>
	<text x="979" y="488">烤鸭</text>
	<text x="979" y="536">煎饼果子</text>
	<text x="959" y="586">驴肉火烧</text>
	<text x="1069" y="605">山</text>
	<text x="1069" y="635">东</text>
	<text x="893" y="696">烩面</text>
	<text x="892" y="775">热干面</text>
	<text x="892" y="852">湖</text>
	<text x="892" y="882">南</text>
	<text x="1054" y="692">江</text>
	<text x="1054" y="722">苏</text>
	<text x="1093" y="752">生煎包</text>
	<text x="1080" y="802">浙</text>
	<text x="1080" y="832">江</text>
	<text x="1049" y="901">福</text>
	<text x="1049" y="931">建</text>
	<text x="1131" y="943">台</text>
	<text x="1131" y="973">湾</text>
	<text x="830" y="1047">清补凉</text>
	<text x="927" y="959">肠粉</text>
	<text x="980" y="853">江</text>
	<text x="980" y="883">西</text>
	<text x="1001" y="720">安</text>
	<text x="1001" y="750">徽</text>
	<text x="881" y="583">山</text>
	<text x="881" y="613">西</text>
	<text x="810" y="653">陕</text>
	<text x="810" y="683">西</text>
	<text x="733" y="577">宁</text>
	<text x="733" y="607">夏</text>
	<text x="617" y="421">甘</text>
	<text x="617" y="451">肃</text>
	<text x="509" y="637">青稞</text>
	<text x="661" y="777">毛血旺</text>
	<text x="640" y="922">过桥米线</text>
	<text x="783" y="956">螺蛳粉</text>
	<text x="774" y="876">肠旺面</text>
	<text x="785" y="808">火锅</text>
	<text x="312" y="756">酥油茶</text>
	<text x="371" y="405">羊肉串</text>
</g>
<script>
console.log(this)
</script>
</svg>
