<?xml version="1.0" standalone="no"?><!DOCTYPE svg PUBLIC "-//W3C//DTD SVG 1.1//EN" "http://www.w3.org/Graphics/SVG/1.1/DTD/svg11.dtd" ><svg xmlns="http://www.w3.org/2000/svg"><metadata></metadata><defs><font id="fonteditor" horiz-adv-x="2048"><font-face font-family="~yeV	N=Y'W{" font-weight="400" font-stretch="normal" units-per-em="2048" panose-1="1 1 1 4 1 1 1 1 1 1" ascent="2007" descent="-451" x-height="1" bbox="40 -318 2006 2048" underline-thickness="102" underline-position="-309" unicode-range="U+002e-ff15" /><missing-glyph horiz-adv-x="1022" d="M102 0 L102 2048 L920 2048 L920 0 L102 0 ZM818 102 L818 1946 L204 1946 L204 102 L818 102 Z" /><glyph glyph-name="period" unicode="." d="M391 119 L391 117 Q391 55 342 10 Q300 -28 249 -28 Q184 -28 141 20 Q104 61 104 118 Q104 185 151 227 Q192 263 248 263 Q306 263 349 220 Q391 177 391 119 Z" /><glyph glyph-name="zero" unicode="0" d="M568 1378 Q1027 1378 1027 655 Q1027 293 924 108 Q811 -93 565 -93 Q105 -93 105 643 Q105 1378 568 1378 ZM567 1201 Q438 1201 377 1089 Q300 948 300 639 Q300 76 564 76 Q831 76 831 652 Q831 1201 567 1201 Z" /><glyph glyph-name="one" unicode="1" d="M415 946 L412 959 L211 961 Q139 961 123 991 Q115 1007 115 1033 Q115 1081 145 1097 Q165 1107 216 1115 Q329 1132 378 1180 Q422 1222 449 1305 Q474 1380 551 1380 Q611 1380 611 1300 L611 31 Q611 -52 572 -72 Q553 -83 511 -84 L502 -84 Q459 -84 435 -58 Q415 -35 415 31 L415 946 Z" /><glyph glyph-name="two" unicode="2" d="M760 503 L562 384 Q421 298 387 236 Q365 197 355 117 Q950 116 961 115 Q1033 103 1033 22 Q1033 -30 1008 -54 Q985 -76 919 -76 L260 -76 Q110 -76 110 49 Q110 165 178 288 Q233 386 326 457 Q390 506 480 562 L658 673 Q723 714 783 786 Q839 854 839 945 Q839 1057 761 1127 Q690 1191 588 1191 Q485 1191 415 1127 Q354 1070 336 963 Q319 869 229 869 Q134 869 134 962 Q134 1080 196 1188 Q308 1383 594 1383 Q791 1383 912 1269 Q1043 1147 1043 952 Q1043 675 760 503 Z" /><glyph glyph-name="three" unicode="3" d="M792 691 Q809 685 817 681 Q860 664 889 649 Q1047 567 1047 350 Q1047 135 912 12 Q783 -106 558 -106 Q271 -106 159 87 Q100 190 100 294 Q100 386 196 386 Q246 386 269 357 Q286 337 311 256 Q365 83 562 83 Q704 83 774 163 Q837 234 837 345 Q837 491 732 554 Q684 583 578 586 Q464 590 464 680 Q464 710 479 731 Q493 751 501 755 Q522 768 573 771 Q703 779 756 845 Q799 898 799 953 Q799 978 789 1042 Q779 1100 736 1140 Q672 1200 568 1200 Q437 1200 370 1112 Q342 1076 325 991 Q307 903 226 903 Q177 903 147 933 Q126 955 126 997 Q126 1104 187 1205 Q294 1385 567 1385 Q804 1385 914 1262 Q1007 1157 1007 993 Q1007 857 928 777 Q886 734 792 691 Z" /><glyph glyph-name="four" unicode="4" d="M661 259 L202 259 Q129 259 99 288 Q63 322 63 391 Q63 449 94 505 Q104 523 155 595 L657 1314 Q687 1356 714 1371 Q733 1381 767 1381 Q814 1381 837 1357 Q853 1339 853 1289 L853 449 L962 449 Q1066 449 1066 354 Q1066 259 962 259 L853 259 L853 9 Q853 -57 828 -79 Q802 -101 757 -101 Q706 -101 681 -74 Q661 -52 661 9 L661 259 ZM668 450 L668 1007 L307 490 Q291 467 291 461 Q291 450 328 450 L668 450 Z" /><glyph glyph-name="five" unicode="5" d="M343 805 Q461 885 583 885 Q791 885 917 746 Q1032 619 1032 398 Q1032 233 960 102 Q911 11 820 -40 Q702 -105 554 -105 Q309 -105 182 37 Q94 136 94 221 Q94 263 122 288 Q147 311 189 311 Q253 311 291 236 Q367 81 544 81 Q684 81 762 168 Q834 248 834 384 Q834 541 740 625 Q660 696 539 696 Q427 696 328 614 Q265 562 227 562 Q187 562 158 594 Q131 623 131 668 Q131 680 133 693 L209 1253 Q218 1317 246 1338 Q273 1358 325 1358 L872 1358 Q976 1358 976 1262 Q976 1211 948 1186 Q925 1165 863 1165 L440 1165 Q406 1165 395 1146 Q385 1126 343 805 Z" /><glyph glyph-name="six" unicode="6" d="M313 769 L313 761 L312 735 L312 686 L314 688 L334 714 Q430 837 611 837 Q812 837 927 706 Q1038 581 1038 391 Q1038 144 886 3 Q769 -105 589 -105 Q338 -105 211 86 Q105 246 105 589 Q105 971 224 1174 Q280 1268 379 1325 Q484 1385 612 1385 Q829 1385 948 1218 Q1006 1137 1006 1072 Q1006 1031 977 1007 Q943 979 901 979 Q845 979 806 1062 Q774 1129 713 1165 Q661 1195 599 1195 Q504 1195 433 1129 Q375 1075 343 966 Q313 865 313 769 ZM585 651 Q457 651 379 562 Q314 487 314 378 Q314 233 407 150 Q482 83 580 83 Q695 83 771 166 Q842 243 842 372 Q842 511 756 590 Q689 651 585 651 Z" /><glyph glyph-name="seven" unicode="7" d="M770 1163 L216 1163 Q88 1163 88 1275 Q88 1360 188 1360 L934 1360 Q1004 1360 1028 1332 Q1049 1307 1049 1262 Q1049 1207 992 1124 Q836 897 771 774 Q587 431 510 98 Q478 -37 432 -70 Q406 -88 371 -88 Q321 -88 293 -58 Q272 -36 272 -1 Q272 37 339 291 Q369 406 475 634 Q574 849 770 1163 Z" /><glyph glyph-name="eight" unicode="8" d="M802 700 Q898 650 954 589 Q1044 493 1044 344 Q1044 139 902 10 Q778 -103 569 -103 Q331 -103 201 42 Q90 167 90 337 Q90 571 327 701 Q262 744 226 777 Q137 859 137 997 Q137 1169 261 1282 Q374 1385 564 1385 Q778 1385 894 1254 Q991 1145 991 998 Q991 851 880 756 Q849 729 802 700 ZM565 1211 Q444 1211 382 1141 Q330 1082 330 997 Q330 899 396 839 Q457 783 565 783 Q677 783 740 847 Q797 905 797 994 Q797 1096 731 1156 Q670 1211 565 1211 ZM567 607 Q428 607 350 520 Q285 449 285 341 Q285 217 368 143 Q445 75 562 75 Q707 75 784 161 Q849 233 849 339 Q849 465 766 539 Q690 607 567 607 Z" /><glyph glyph-name="nine" unicode="9" d="M550 1387 Q821 1387 944 1171 Q1042 999 1042 692 Q1042 321 926 118 Q870 20 767 -42 Q658 -108 524 -108 Q307 -108 188 56 Q126 142 126 209 Q126 245 155 271 Q183 297 223 297 Q284 297 325 223 Q403 82 537 82 Q640 82 718 171 Q823 292 823 465 L820 511 L821 544 L822 591 Q811 588 797 562 Q771 517 677 473 Q610 440 518 440 Q325 440 206 574 Q148 640 117 736 Q91 816 91 891 Q91 1128 246 1274 Q365 1387 550 1387 ZM554 1198 Q440 1198 363 1115 Q292 1038 292 908 Q292 767 378 688 Q445 627 549 627 Q674 627 752 713 Q820 789 820 902 Q820 1047 727 1130 Q652 1198 554 1198 Z" /><glyph glyph-name="colon" unicode=":" d="M238 234 Q303 234 345 187 Q381 147 381 96 Q381 31 333 -12 Q293 -48 241 -48 Q177 -48 135 -1 Q99 39 99 95 Q99 159 144 200 Q182 234 238 234 ZM382 906 L382 904 Q382 843 333 799 Q292 762 242 762 Q179 762 137 809 Q101 849 101 904 Q101 970 146 1010 Q184 1045 241 1045 Q299 1045 341 1003 Q382 961 382 906 Z" /><glyph glyph-name="at" unicode="@" d="M1659 718 Q1661 742 1661 761 Q1661 1065 1415 1207 Q1227 1315 1016 1315 Q823 1315 652 1215 Q482 1116 382 944 Q283 775 283 590 Q283 317 482 139 Q584 47 743 0 Q866 -36 997 -36 Q1111 -36 1214 -9 Q1281 9 1319 9 Q1353 9 1377 -19 Q1400 -45 1400 -81 Q1400 -147 1318 -174 Q1158 -227 971 -227 Q708 -227 485 -100 Q296 8 190 192 Q87 371 87 588 Q87 851 238 1086 Q384 1313 638 1424 Q827 1506 1027 1506 Q1275 1506 1488 1384 Q1671 1278 1769 1107 Q1858 951 1858 774 Q1858 734 1853 701 Q1831 555 1779 457 Q1619 154 1331 154 Q1147 154 1114 288 Q995 167 853 167 Q706 167 610 275 Q516 380 516 533 Q516 778 704 951 Q852 1087 1028 1087 Q1176 1087 1257 940 L1270 984 Q1274 1000 1291 1023 Q1318 1058 1356 1058 Q1401 1058 1431 1027 Q1451 1007 1451 971 Q1451 944 1442 914 L1310 483 Q1292 424 1292 402 Q1292 374 1316 352 Q1338 332 1366 332 Q1439 332 1520 407 Q1630 509 1656 691 L1658 703 Q1658 710 1659 718 ZM1019 921 Q925 921 843 844 Q778 784 743 689 Q715 612 715 538 Q715 438 782 377 Q834 330 897 330 Q966 330 1031 390 Q1095 450 1142 600 Q1175 703 1175 770 Q1175 835 1131 878 Q1086 921 1019 921 Z" /><glyph glyph-name="G" unicode="g" d="M1249 106 Q1171 18 1102 -30 Q955 -131 761 -131 Q471 -131 289 72 Q194 178 144 352 Q104 488 104 635 Q104 888 215 1094 Q282 1218 407 1303 Q562 1409 804 1409 Q1008 1409 1153 1326 Q1277 1255 1350 1129 Q1393 1055 1393 996 Q1393 967 1378 947 Q1340 896 1279 896 Q1217 896 1191 965 Q1145 1087 1041 1152 Q936 1218 793 1218 Q573 1218 442 1071 Q378 1000 340.5 883.5 Q303 767 303 640 Q303 437 393 276 Q445 182 541 126 Q654 60 797 60 Q1087 60 1193 304 Q1225 378 1228 503 L964 503 Q871 503 846 524 Q812 553 812 605 Q812 690 913 690 L1327 690 L1334 687 Q1387 678 1395 671 Q1432 639 1432 566 L1432 20 Q1432 -49 1406 -71 Q1380 -94 1339 -94 Q1247 -94 1248 2 L1249 106 Z" /><glyph glyph-name="H" unicode="h" d="M1095 567 L363 567 L363 15 Q363 -49 340 -72 Q316 -97 266 -97 Q215 -97 191 -72 Q168 -49 168 15 L168 1272 Q168 1336 191 1359 Q215 1384 265 1384 Q316 1384 340 1359 Q363 1336 363 1272 L363 753 L1095 753 L1095 1272 Q1095 1336 1118 1359 Q1142 1384 1192 1384 Q1243 1384 1267 1359 Q1290 1336 1290 1272 L1290 15 Q1290 -49 1267 -72 Q1243 -97 1193 -97 Q1142 -97 1118 -72 Q1095 -49 1095 15 L1095 567 Z" /><glyph glyph-name="b" unicode="b" d="M357 812 Q406 879 447 912 Q533 982 663 982 Q904 982 1016 785 Q1093 650 1093 433 Q1093 205 1010 56 Q960 -33 871 -86 Q779 -140 664 -140 Q467 -140 354 17 L354 -55 Q354 -97 329 -116 Q298 -140 256 -140 Q167 -140 167 -29 L167 1268 Q167 1331 190 1355 Q213 1380 263 1380 Q310 1380 334 1355 Q357 1332 357 1268 L357 812 ZM625 801 Q516 801 444 721 Q401 673 377 583 Q357 510 357 429 Q357 287 416 171 Q446 111 506 77 Q560 46 626 46 Q742 46 817 132 Q860 180 884 270 Q904 343 904 419 Q904 576 849 669 Q772 801 625 801 Z" /><glyph glyph-name="c" unicode="c" d="M559 984 Q763 984 873 862 Q956 769 956 666 Q956 577 857 577 Q817 577 797 598 Q789 607 770 653 Q710 804 554 804 Q413 804 344 682 Q287 580 287 413 Q287 257 341 162 Q412 36 557 36 Q719 36 781 213 Q796 256 815 272.5 Q834 289 869 289 Q966 289 966 199 Q966 68 847 -42 Q742 -140 560 -140 Q319 -140 194 37 Q92 181 92 413 Q92 625 175 769 Q299 984 559 984 Z" /><glyph glyph-name="d" unicode="d" d="M858 17 Q746 -140 548 -140 Q388 -140 277 -38 Q119 106 119 432 Q119 650 196 785 Q308 982 549 982 Q694 982 788 893 Q817 865 855 812 L855 1268 Q855 1336 882 1359 Q906 1380 949 1380 Q999 1380 1022 1356 Q1045 1332 1045 1268 L1045 -29 Q1045 -140 956 -140 Q910 -140 878 -111 Q858 -94 858 -55 L858 17 ZM586 802 Q463 802 387 707 Q307 607 307 427 Q307 207 413 115 Q491 46 586 46 Q696 46 767 128 Q809 176 834 271 Q855 350 855 430 Q855 571 797 679 Q766 737 708 770 Q652 802 586 802 Z" /><glyph glyph-name="e" unicode="e" d="M291 367 Q299 247 324 193 Q398 36 578 36 Q677 36 753 87 Q794 114 840 198 Q868 249 920 249 Q969 249 1000 218 Q1020 198 1020 168 Q1020 60 902 -41 Q785 -141 596 -141 Q295 -141 173 74 Q97 208 97 417 Q97 699 242 854 Q308 924 386 950 Q451 972 560 984 L560 981 Q707 981 807 923 Q940 845 990 688 Q1021 591 1021 512 Q1021 367 885 367 L291 367 ZM532 806 Q459 793 427 773 Q312 699 295 511 L826 511 Q825 651 746 732 Q694 786 646 794 Q570 807 557 807 Q550 807 532 806 Z" /><glyph glyph-name="f" unicode="f" d="M226 969 L226 1148 Q226 1398 471 1398 Q542 1398 564 1372 Q585 1347 585 1310 Q585 1228 514 1228 L484 1228 Q415 1228 415 1133 L415 969 L506 969 Q587 969 587 876 Q587 783 504 783 L416 783 L416 -1 Q416 -65 393 -88 Q369 -113 322 -113 Q273 -113 249 -88 Q226 -65 226 -1 L226 783 L145 783 Q62 783 62 876 Q62 969 144 969 L226 969 Z" /><glyph glyph-name="h" unicode="h" d="M343 850 Q393 903 435 930 Q524 987 653 987 Q853 987 944 886 Q1014 808 1014 686 L1014 -14 Q1014 -79 991 -102 Q968 -127 919 -127 Q871 -127 848 -102 Q825 -79 825 -14 L825 619 Q825 801 614 801 Q492 801 416 717 Q343 635 343 482 L343 -14 Q343 -78 320 -102 Q297 -127 248 -127 Q201 -127 177 -102 Q154 -79 154 -14 L154 1285 Q154 1349 177 1372 Q200 1397 248 1397 Q297 1397 320 1373 Q343 1349 343 1285 L343 850 Z" /><glyph glyph-name="i" unicode="i" d="M253 1398 Q309 1398 345 1360 Q381 1323 381 1270 Q381 1209 339 1171 Q303 1139 253 1139 Q193 1139 154 1182 Q122 1217 122 1268 Q122 1326 165 1365 Q201 1398 253 1398 ZM154 6 L154 850 Q154 906 185 932 Q215 957 252 957 Q296 957 327 925 Q350 902 350 850 L350 6 Q350 -51 320 -76 Q290 -101 252 -101 Q208 -101 177 -69 Q154 -46 154 6 Z" /><glyph glyph-name="l" unicode="l" d="M350 1275 L350 5 Q350 -58 327 -82 Q303 -107 252 -107 Q202 -107 177 -82 Q154 -59 154 5 L154 1275 Q154 1339 177 1362 Q201 1387 252 1387 Q303 1387 327 1362 Q350 1338 350 1275 Z" /><glyph glyph-name="m" unicode="m" d="M935 818 Q987 879 1031 912 Q1124 981 1248 981 Q1393 981 1482 892 Q1556 819 1556 687 L1556 1 Q1556 -61 1534 -84 Q1509 -109 1458 -109 Q1406 -109 1382 -84 Q1359 -61 1359 1 L1359 615 Q1359 802 1185 802 Q1085 802 1020 729 Q959 661 959 563 L959 1 Q959 -64 933 -86 Q906 -109 861 -109 Q809 -109 783 -80 Q763 -59 763 1 L763 616 Q763 711 714 754 Q668 793 604 793 Q520 793 445 720 Q362 640 362 563 L362 1 Q362 -64 336 -86 Q309 -109 264 -109 Q212 -109 186 -80 Q166 -59 166 1 L166 866 Q166 975 258 975 Q307 975 335 944 Q356 921 356 892 L356 802 Q406 876 450 913 Q535 986 658 986 Q837 986 935 818 Z" /><glyph glyph-name="n" unicode="n" d="M352 777 Q411 876 466 916 Q559 983 688 983 Q846 983 926 893 Q996 814 996 684 L996 -3 Q996 -65 974 -88 Q949 -113 898 -113 Q847 -113 823 -88 Q800 -65 800 -3 L800 592 Q800 739 681 793 Q647 808 608 808 Q583 808 527 787 Q484 770 434 701 Q404 659 390 629 Q358 560 358 454 L358 -3 Q358 -65 336 -88 Q311 -113 259 -113 Q209 -113 185 -88 Q162 -66 162 -3 L162 862 Q162 972 254 972 Q303 972 331 941 Q352 918 352 888 L352 777 Z" /><glyph glyph-name="o" unicode="o" d="M574 984 Q804 984 924 829 Q1039 682 1039 430 Q1039 206 962 71 Q843 -140 566 -140 Q291 -140 172 71 Q95 207 95 422 Q95 639 172 773 Q293 984 574 984 ZM568 807 Q454 807 379 723 Q337 676 313 585 Q294 510 294 434 Q294 197 401 102 Q474 37 567 37 Q677 37 753 119 Q841 214 841 423 Q841 585 786 680 Q712 807 568 807 Z" /><glyph glyph-name="t" unicode="t" d="M414 785 L414 126 Q414 76 432 59 Q451 41 510 41 L532 41 Q612 41 612 -48 Q612 -102 589 -124 Q566 -146 469 -146 Q344 -146 295 -119 Q221 -78 221 32 L221 786 L157 786 Q70 786 70 878 Q70 970 157 970 L221 970 L221 1028 Q221 1171 243 1211 Q264 1249 317 1249 Q354 1249 383 1222 Q417 1191 414 1056 Q414 1046 414 1008 Q414 996 414 970 L499 970 Q590 970 590 878 Q590 785 499 785 L414 785 Z" /><glyph glyph-name="u" unicode="u" d="M806 55 Q751 -24 705 -62 Q613 -137 472 -137 Q311 -137 232 -47 Q162 32 162 162 L162 849 Q162 912 184 934 Q209 959 260 959 Q311 959 335 934 Q358 911 358 849 L358 255 Q358 107 479 53 Q513 38 552 38 Q571 38 623 54 Q676 69 723 125 Q800 216 800 392 L800 849 Q800 911 823 934 Q847 959 898 959 Q949 959 973 934 Q996 911 996 849 L996 -22 Q996 -131 904 -131 Q855 -131 827 -100 Q806 -77 806 -48 L806 55 Z" /><glyph glyph-name="v" unicode="v" d="M529 258 L772 879 Q805 963 865 963 Q918 963 954 926 Q976 903 976 877 Q976 848 960 808 L630 -9 Q598 -88 570 -104 Q547 -118 519 -118 Q450 -118 410 -10 L111 804 Q96 845 96 873 Q96 904 127 930 Q162 959 207 959 Q269 959 299 879 L529 258 Z" /><glyph glyph-name="w" unicode="w" d="M761 594 L576 -15 Q561 -66 536 -81 Q511 -97 469 -97 Q420 -97 394 -77 Q375 -61 360 -16 L99 814 Q88 849 88 876 Q88 906 118 931 Q155 962 203 962 Q265 962 289 885 L469 302 L472 292 L644 869 Q660 926 688 943 Q716 961 762 961 Q814 961 842 939 Q864 921 881 870 L1066 292 L1073 312 L1239 883 Q1262 963 1327 963 Q1380 963 1418 928 Q1441 907 1441 881 Q1441 857 1430 821 L1167 -15 Q1151 -66 1126 -81 Q1100 -97 1058 -97 Q1010 -97 984 -77 Q964 -61 950 -15 L761 594 Z" /><glyph glyph-name="z" unicode="z" d="M349 77 L843 77 Q907 77 929 52 Q949 28 949 -12 Q949 -60 926 -83 Q904 -104 843 -104 L200 -104 Q73 -104 73 -6 Q73 24 91 56 Q103 76 156 147 L165 159 L665 779 L231 779 Q167 779 145 804 Q125 828 125 868 Q125 916 148 939 Q170 960 231 960 L812 960 Q929 960 929 864 Q929 798 857 709 L349 77 Z" /><glyph glyph-name="uni4E2D" unicode="&#x4e2d;" d="M1124 1267 L1621 1267 Q1698 1267 1729 1256 Q1812 1225 1842 1144 Q1853 1114 1853 1041 L1853 467 Q1853 393 1842 363 Q1812 282 1729 251 Q1698 240 1621 240 L1124 240 L1124 -205 Q1124 -244 1093 -271 Q1062 -298 1017 -298 Q917 -298 917 -205 L917 240 L438 240 Q361 240 329 251 Q247 282 217 363 Q206 393 206 467 L206 1033 Q206 1115 217 1145 Q247 1226 330 1256 Q361 1267 438 1267 L917 1267 L917 1503 Q917 1536 945 1561 Q977 1588 1021 1588 Q1071 1588 1103 1555 Q1124 1532 1124 1503 L1124 1267 ZM1124 1074 L1124 433 L1573 433 Q1621 433 1639 473 Q1649 495 1649 564 L1648 983 Q1648 1016 1639 1034 Q1617 1074 1573 1074 L1124 1074 ZM917 433 L917 1074 L486 1074 Q437 1074 420 1034 Q409 1010 409 951 L410 545 Q410 491 420 473 Q442 433 486 433 L917 433 Z" /><glyph glyph-name="uni4E32" unicode="&#x4e32;" d="M1122 819 L1122 659 L1674 659 Q1740 659 1767 649 Q1838 623 1864 551 Q1874 524 1874 458 L1874 280 Q1874 199 1864 172 Q1838 100 1767 74 Q1740 64 1674 64 L1122 64 L1122 -212 Q1122 -247 1090 -275 Q1056 -304 1014 -304 Q965 -304 932 -269 Q909 -243 909 -212 L909 64 L369 64 Q303 64 277 74 Q206 100 179 171 Q169 199 169 280 L169 458 Q169 523 179 551 Q205 623 277 649 Q303 659 369 659 L909 659 L909 819 L442 819 Q376 819 350 829 Q278 855 252 928 Q242 955 242 1021 L242 1188 Q242 1253 252 1280 Q278 1352 350 1378 Q376 1388 442 1388 L909 1388 L909 1505 Q909 1538 937 1563 Q969 1590 1014 1590 Q1066 1590 1100 1554 Q1122 1531 1122 1505 L1122 1388 L1601 1388 Q1667 1388 1694 1378 Q1765 1352 1792 1280 Q1801 1253 1801 1188 L1801 1021 Q1801 955 1791 928 Q1765 855 1693 829 Q1667 819 1601 819 L1122 819 ZM1122 992 L1527 992 Q1605 992 1605 1072 L1605 1135 Q1605 1215 1527 1215 L1122 1215 L1122 992 ZM909 992 L909 1215 L516 1215 Q438 1215 438 1135 L438 1072 Q438 992 516 992 L909 992 ZM1122 237 L1601 237 Q1679 237 1679 316 L1679 407 Q1679 486 1601 486 L1122 486 L1122 237 ZM909 237 L909 486 L443 486 Q365 486 365 407 L365 316 Q365 237 443 237 L909 237 Z" /><glyph glyph-name="uni4ED4" unicode="&#x4ed4;" d="M1528 577 Q1596 387 1596 210 Q1596 18 1516 -133 Q1433 -291 1187 -291 Q1029 -291 905 -229 Q835 -194 835 -130 Q835 -83 868 -50 Q889 -29 916 -29 Q938 -29 1046 -59 Q1124 -80 1180 -80 Q1244 -80 1291 -55 Q1323 -39 1343 1 Q1386 89 1386 205 Q1386 400 1303 577 L697 577 Q657 577 629 608 Q603 638 603 678 Q603 724 636 754 Q662 778 697 778 L1171 778 Q1106 859 1106 902 Q1106 965 1200 1037 Q1305 1116 1430 1182 Q1536 1238 1536 1266 Q1536 1291 1501 1291 L854 1291 Q813 1291 783 1324 Q757 1353 757 1391 Q757 1433 790 1464 Q818 1489 854 1489 L1699 1489 Q1792 1489 1834 1444 Q1864 1411 1864 1368 Q1864 1295 1772 1205 Q1726 1161 1604 1074 Q1482 987 1418 954 Q1358 922 1358 901 Q1358 880 1392 829 Q1407 808 1426 778 L1897 778 Q1939 778 1966 748 Q1992 719 1992 678 Q1992 631 1960 601 Q1934 577 1897 577 L1528 577 ZM543 1131 L543 -208 Q543 -253 508 -285 Q478 -312 440 -312 Q395 -312 363 -277 Q336 -247 336 -208 L336 787 Q322 768 314 758 Q218 622 152 622 Q108 622 74 659 Q47 689 47 719 Q47 760 138 876 Q250 1019 343 1201 Q385 1282 452 1460 Q499 1585 566 1585 Q611 1585 647 1553 Q674 1527 674 1492 Q674 1418 625 1311 L571 1192 L543 1131 Z" /><glyph glyph-name="uni4ED6" unicode="&#x4ed6;" d="M1396 1133 L1661 1214 Q1727 1234 1741 1234 Q1805 1234 1843 1197 Q1879 1161 1877 1047 Q1876 1008 1876 962 Q1875 546 1855 457 Q1820 291 1660 291 Q1412 291 1412 418 Q1412 462 1440 489 Q1456 504 1472 504 Q1490 504 1521 494 Q1568 478 1614 478 Q1644 478 1656 493 Q1684 527 1684 844 Q1684 979 1676 997 Q1671 1009 1657 1009 Q1644 1009 1621 1002 L1396 932 L1396 233 Q1396 188 1367 163 Q1340 139 1303 139 Q1259 139 1230 171 Q1206 198 1206 233 L1206 873 L972 800 L972 81 Q972 -15 1029 -36 Q1080 -55 1380 -57 L1543 -57 Q1679 -57 1729 -19 Q1750 -4 1757 38 Q1758 44 1772 184 Q1780 269 1864 269 Q1914 269 1947 236 Q1969 213 1969 171 Q1969 77 1944 -47 Q1917 -181 1796 -221 Q1706 -250 1343 -251 Q1294 -251 1280 -251 Q909 -259 836 -167 Q782 -100 782 35 L782 741 L695 714 Q670 706 652 706 Q617 706 593 736 Q564 772 564 817 Q564 879 637 901 L782 945 L782 1300 Q782 1338 811 1363 Q839 1388 877 1388 Q921 1388 950 1357 Q972 1333 972 1300 L972 1003 L1206 1075 L1206 1502 Q1206 1536 1235 1561 Q1263 1587 1302 1587 Q1346 1587 1374 1556 Q1396 1532 1396 1502 L1396 1133 ZM507 1121 L507 -200 Q507 -245 474 -275 Q445 -301 408 -301 Q366 -301 338 -269 Q312 -240 312 -200 L312 781 Q266 716 238 684 Q191 631 148 631 Q107 631 73 668 Q46 697 46 728 Q46 766 122 864 Q310 1104 434 1480 Q471 1592 531 1592 Q580 1592 614 1557 Q636 1535 636 1506 Q636 1460 577 1289 Q554 1223 507 1121 Z" /><glyph glyph-name="uni4F1A" unicode="&#x4f1a;" d="M530 912 Q460 870 401 845 Q247 780 215.5 769 Q184 758 147 758 Q109 758 81 792 Q50 828 50 869 Q50 927 162 967 Q595 1124 921 1497 Q1001 1588 1048 1588 Q1092 1588 1129 1549 Q1155 1520 1155 1485 Q1155 1463 1143 1441 Q1180 1407 1199 1391 Q1520 1100 1879 976 Q1969 945 1989 912 Q2001 893 2001 867 Q2001 815 1965 781 Q1938 756 1906 756 Q1827 756 1563 899 Q1362 1008 1208 1134 Q1152 1180 1054 1264 L1022 1292 Q870 1132 587 947 L596 948 L1450 948 Q1485 948 1510 920 Q1534 893 1534 856 Q1534 814 1503 786 Q1480 764 1450 764 L596 764 Q561 764 537 792 Q513 820 513 857 Q513 885 530 912 ZM956 385 Q908 319 902 311 Q769 130 599 -24 Q629 -25 643 -25 L706 -23 Q1231 -3 1447 30 Q1390 101 1341 146 Q1287 195 1270 230 Q1264 243 1264 267 Q1264 310 1296 337 Q1328 365 1366 365 Q1437 365 1548 236 Q1703 58 1744 -3 Q1820 -121 1820 -195 Q1820 -236 1787 -266 Q1759 -292 1726 -292 Q1695 -292 1662 -268 Q1650 -259 1611 -197 Q1600 -179 1567 -134 Q1406 -161 1236 -174 Q739 -213 378 -213 Q294 -213 268 -185 Q243 -158 243 -114 Q243 -68 272 -38 Q279 -31 321 -3 Q337 8 353 23 Q488 131 580 237 Q628 293 698 385 L233 385 Q197 385 171 414 Q145 444 145 482 Q145 524 176 553 Q200 575 233 575 L1834 575 Q1873 575 1899 545 Q1924 517 1924 481 Q1924 438 1892 408 Q1866 385 1834 385 L956 385 Z" /><glyph glyph-name="uni4FDD" unicode="&#x4fdd;" d="M1160 647 L1160 801 L930 801 Q859 801 823 815 Q748 843 719 912 Q704 946 704 1016 L704 1290 Q704 1361 719 1394 Q749 1463 823 1492 Q858 1505 930 1505 L1611 1505 Q1682 1505 1717 1492 Q1792 1463 1822 1394 Q1837 1361 1837 1290 L1837 1016 Q1837 946 1822 912 Q1792 843 1717 815 Q1682 801 1611 801 L1358 801 L1358 647 L1868 647 Q1902 647 1926 620 Q1950 592 1950 553 Q1950 514 1927 490 Q1901 462 1868 462 L1446 462 Q1487 408 1551 344 Q1713 182 1876 90 Q1945 52 1978 16 Q2002 -12 2002 -56 Q2002 -103 1962 -128 Q1935 -145 1910 -145 Q1862 -145 1762 -84 Q1662 -23 1564 65 Q1467 153 1358 297 L1358 -221 Q1358 -251 1332 -274 Q1301 -300 1258 -300 Q1211 -300 1180 -268 Q1160 -247 1160 -221 L1160 279 Q1072 161 954 47 Q746 -155 618 -155 Q581 -155 553 -131 Q522 -105 522 -64 Q522 -29 549 5 Q567 27 717 117 Q853 199 1012 375 Q1036 401 1079 462 L671 462 Q640 462 614 491 Q589 519 589 555 Q589 596 621 625 Q645 647 671 647 L1160 647 ZM1646 1061 L1646 1245 Q1646 1290 1628 1310 Q1611 1328 1569 1328 L971 1328 Q930 1328 913 1310 Q895 1291 895 1245 L895 1061 Q895 1015 913 996 Q930 978 971 978 L1569 978 Q1611 978 1628 996 Q1646 1016 1646 1061 ZM507 1107 L507 -213 Q507 -257 474 -287 Q444 -313 407 -313 Q363 -313 332 -279 Q306 -250 306 -213 L306 772 Q220 643 163 643 Q119 643 85 680 Q59 709 59 745 Q59 788 128 875 Q205 973 294 1135 Q384 1299 422 1416 Q462 1544 502 1570 Q526 1585 549 1585 Q594 1585 627 1551 Q652 1526 652 1494 Q652 1426 599 1316 Q581 1279 514 1123 Q511 1114 507 1107 Z" /><glyph glyph-name="uni505A" unicode="&#x505a;" d="M1317 703 Q1274 659 1238 659 Q1194 659 1161 693 Q1138 717 1138 742 Q1138 779 1173 841 Q1305 1073 1353 1383 L1369 1488 Q1386 1599 1461 1599 Q1507 1599 1539 1566 Q1564 1542 1564 1495 Q1564 1425 1522 1241 L1901 1241 Q1936 1241 1962 1211 Q1988 1182 1988 1142 Q1988 1097 1956 1067 Q1932 1045 1901 1045 L1855 1045 Q1835 789 1801 635 Q1754 420 1676 259 Q1769 107 1947 -91 Q1999 -148 1999 -188 Q1999 -231 1963 -263 Q1932 -291 1896 -291 Q1849 -291 1774 -205 Q1715 -137 1586 56 Q1579 67 1570 80 Q1464 -69 1361 -159 Q1204 -295 1139 -295 Q1101 -295 1070 -260 Q1041 -228 1041 -190 Q1041 -161 1069 -131 Q1084 -114 1182 -43 Q1354 82 1468 264 Q1383 448 1317 703 ZM1443 958 Q1486 702 1571 477 Q1610 584 1635 709 Q1655 806 1679 1045 L1472 1045 Q1458 999 1443 958 ZM976 712 L989 712 Q1054 712 1081 702 Q1153 676 1179 605 Q1189 578 1189 512 L1189 116 Q1189 50 1179 23 Q1153 -49 1081 -75 Q1054 -85 989 -85 L777 -85 Q711 -85 684 -75 Q612 -49 586 23 Q576 49 576 116 L576 512 Q576 578 586 605 Q612 676 684 702 Q711 712 777 712 L786 712 L786 1001 L595 1001 Q558 1001 531 1026 Q500 1053 500 1093 Q500 1131 527 1158 Q555 1186 595 1186 L786 1186 L786 1496 Q786 1529 814 1553 Q842 1578 880 1578 Q924 1578 955 1545 Q976 1522 976 1496 L976 1186 L1121 1186 Q1179 1186 1208 1148 Q1225 1125 1225 1096 Q1225 1062 1202 1036 Q1171 1001 1121 1001 L976 1001 L976 712 ZM749 431 L750 209 Q750 144 773 125 Q795 106 827 106 L939 106 Q1015 106 1015 195 L1015 405 Q1015 479 999 497 Q977 522 939 522 L827 522 Q749 522 749 431 ZM457 1084 L457 -206 Q457 -255 424 -286 Q400 -310 361 -310 Q320 -310 296 -282 Q270 -251 270 -206 L270 720 Q197 619 149 619 Q106 619 72 654 Q49 678 49 708 Q49 749 109 837 Q184 949 260 1118 Q337 1288 369 1420 Q400 1544 438 1572 Q461 1588 487 1588 Q531 1588 561 1555 Q585 1529 585 1498 Q585 1413 457 1084 Z" /><glyph glyph-name="uni5168" unicode="&#x5168;" d="M1150 1472 Q1184 1442 1201 1427 Q1516 1145 1877 1016 Q1966 984 1986 952 Q1998 932 1998 906 Q1998 855 1962 820 Q1935 795 1904 795 Q1851 795 1722 857 Q1688 873 1641 895 Q1670 867 1670 825 Q1670 781 1639 753 Q1612 729 1575 729 L1127 729 L1127 474 L1592 474 Q1637 474 1663 445 Q1687 418 1687 379 Q1687 335 1656 308 Q1629 284 1592 284 L1127 284 L1127 -36 L1854 -36 Q1896 -36 1924 -68 Q1949 -96 1949 -132 Q1949 -174 1918 -202 Q1891 -226 1854 -226 L184 -226 Q147 -226 123 -198 Q98 -170 98 -131 Q98 -86 129 -58 Q152 -36 184 -36 L923 -36 L923 284 L451 284 Q412 284 387 313 Q362 341 362 379 Q362 423 393 452 Q417 474 451 474 L923 474 L923 729 L447 729 Q410 729 386 757 Q361 785 361 825 Q361 841 368 861 L328 845 Q196 793 147 793 Q107 793 78 829 Q47 866 47 906 Q47 963 160 1003 Q364 1075 567 1209 Q776 1347 914 1509 Q987 1595 1036 1595 Q1089 1595 1127 1554 Q1153 1527 1153 1496 Q1153 1486 1150 1472 ZM1032 1320 Q806 1084 490 919 L1575 919 Q1587 919 1602 916 Q1416 1014 1281 1114 Q1183 1187 1032 1320 Z" /><glyph glyph-name="uni5176" unicode="&#x5176;" d="M417 332 L417 1194 L206 1194 Q173 1194 149 1221 Q126 1248 126 1283 Q126 1323 155 1350 Q176 1370 206 1370 L417 1370 L417 1500 Q417 1534 447 1560 Q479 1588 522 1588 Q569 1588 599 1556 Q621 1532 621 1500 L621 1370 L1432 1370 L1432 1501 Q1432 1536 1459 1560 Q1490 1586 1534 1586 Q1585 1586 1615 1553 Q1636 1531 1636 1501 L1636 1370 L1845 1370 Q1877 1370 1900 1344 Q1923 1318 1923 1282 Q1923 1240 1895 1214 Q1874 1194 1845 1194 L1636 1194 L1636 332 L1907 332 Q1940 332 1963 306 Q1985 281 1985 244 Q1985 200 1956 173 Q1935 153 1907 153 L143 153 Q115 153 92 180 Q67 208 67 244 Q67 285 96 312 Q117 332 143 332 L417 332 ZM621 673 L1432 673 L1432 856 L621 856 L621 673 ZM1432 515 L621 515 L621 332 L1432 332 L1432 515 ZM1432 1194 L621 1194 L621 1014 L1432 1014 L1432 1194 ZM1357 134 Q1407 134 1608 28 Q1784 -65 1835 -107 Q1878 -143 1878 -183 Q1878 -232 1840 -268 Q1816 -291 1788 -291 Q1765 -291 1683 -246 L1604 -200 L1534 -162 L1441 -112 Q1342 -62 1319 -49 Q1259 -13 1259 34 Q1259 71 1294 110 Q1316 134 1357 134 ZM729 138 Q762 138 792 106 Q821 73 821 35 Q821 -27 665 -114 Q456 -229 428 -243 Q336 -288 285 -293 Q245 -297 215 -263 Q187 -231 187 -190 Q187 -131 278 -90 Q392 -38 600 82 Q698 138 729 138 Z" /><glyph glyph-name="uni51B7" unicode="&#x51b7;" d="M1329 1483 Q1448 1339 1550 1244 Q1684 1120 1916 984 Q1998 937 1998 884 Q1998 835 1961 801 Q1933 775 1903 775 Q1860 775 1753 841 Q1493 1001 1235 1314 Q1155 1205 1074 1121 Q911 951 745 838 Q643 769 601 769 Q567 769 536 804 Q506 839 506 877 Q506 924 602 986 Q696 1047 816 1152 Q999 1310 1096 1471 Q1146 1555 1165 1572 Q1193 1596 1221 1596 Q1284 1596 1318 1545 Q1331 1525 1331 1499 Q1331 1493 1329 1483 ZM1228 166 Q1414 304 1518 444 Q1553 491 1553 513 Q1553 529 1508 529 L739 529 Q705 529 679 558 Q654 586 654 622 Q654 665 686 694 Q709 716 739 716 L1662 716 Q1740 716 1776 676 Q1806 642 1806 600 Q1806 487 1651 300 Q1523 147 1376 37 Q1545 -118 1545 -198 Q1545 -237 1510 -268 Q1481 -294 1447 -294 Q1411 -294 1345 -230 Q1303 -190 1208 -100 Q1130 -24 1018 69 Q945 131 912 164 Q871 204 871 246 Q871 289 904 313 Q931 333 957 333 Q1017 333 1228 166 ZM474 651 Q519 651 554 618 Q582 593 578 556 Q566 426 369 20 Q292 -139 239 -174 Q206 -195 175 -195 Q133 -195 103 -163 Q81 -139 81 -109 Q81 -74 141 24 Q188 100 267 273 Q346 447 372 535 Q406 651 474 651 ZM205 1506 Q235 1506 271 1480 Q324 1440 456 1258 Q518 1171 535 1140 Q552 1106 552 1076 Q552 1040 519 1011 Q487 983 449 983 Q418 983 391 1007 Q374 1021 337 1077 Q272 1175 174 1294 Q104 1380 104 1416 Q104 1450 135 1478 Q167 1506 205 1506 ZM1151 1115 Q1198 1115 1280 1024 Q1399 891 1399 839 Q1399 805 1364 775 Q1333 747 1298 747 Q1260 747 1208 813 Q1184 844 1095 944 Q1053 992 1053 1022 Q1053 1055 1085 1085 Q1118 1115 1151 1115 Z" /><glyph glyph-name="uni51C9" unicode="&#x51c9;" d="M1361 422 L1361 -52 Q1361 -177 1314 -223 Q1252 -283 1126 -283 Q896 -283 896 -153 Q896 -104 926 -77 Q946 -59 969 -59 Q988 -59 1039 -71 Q1070 -78 1098 -78 Q1135 -78 1149 -63 Q1165 -45 1165 11 L1165 422 L892 422 Q828 422 800 432 Q727 460 700 533 Q690 561 690 629 L690 862 Q690 932 701 965 Q712 998 746 1028 Q782 1061 829 1068 Q844 1071 892 1071 L1616 1071 Q1681 1071 1708 1061 Q1782 1033 1809 960 Q1819 932 1819 862 L1819 629 Q1819 561 1809 533 Q1782 460 1709 432 Q1681 422 1616 422 L1361 422 ZM891 809 L891 684 Q891 606 967 606 L1542 606 Q1618 606 1618 684 L1618 809 Q1618 887 1542 887 L967 887 Q891 887 891 809 ZM1147 1384 Q1129 1424 1124 1436 Q1103 1484 1103 1517 Q1103 1543 1129 1564 Q1164 1593 1213 1593 Q1264 1593 1297 1552 Q1335 1503 1377 1384 L1877 1384 Q1920 1384 1945 1355 Q1968 1328 1968 1291 Q1968 1249 1939 1223 Q1912 1200 1880 1200 L655 1200 Q616 1200 587 1230 Q564 1255 564 1291 Q564 1333 593 1361 Q615 1384 658 1384 L1147 1384 ZM465 658 Q516 658 553 623 Q581 596 577 559 Q573 519 520 373 Q454 193 357 11 Q279 -135 225 -176 Q203 -192 169 -192 Q124 -192 92 -158 Q69 -133 69 -109 Q69 -54 139 54 Q243 214 377 586 Q403 658 465 658 ZM230 1510 Q289 1510 374 1387 Q546 1137 546 1059 Q546 1019 511 987 Q479 959 441 959 Q384 959 329 1061 Q272 1168 185 1292 Q125 1379 125 1417 Q125 1451 159 1480 Q193 1510 230 1510 ZM1584 373 Q1639 373 1717 264 Q1773 185 1838 76 Q1918 -61 1918 -122 Q1918 -152 1884 -181 Q1847 -212 1809 -212 Q1757 -212 1711 -114 Q1661 -5 1580 106 Q1486 237 1486 292 Q1486 321 1513 343 Q1549 373 1584 373 ZM879 364 Q911 364 944 339 Q987 306 982 271 Q975 225 887 76 Q811 -52 731 -137 Q658 -214 616 -214 Q565 -214 531 -169 Q516 -149 516 -128 Q516 -96 556 -51 Q706 117 776 258 Q828 364 879 364 Z" /><glyph glyph-name="uni5200" unicode="&#x5200;" d="M929 1262 L925 1197 L921 1142 Q904 872 891 782 Q842 452 731 239 Q593 -25 376 -187 Q249 -282 179 -282 Q136 -282 103 -246 Q73 -213 73 -169 Q73 -138 85 -119 Q109 -84 177 -40 Q414 112 550 388 Q669 628 695 1049 Q707 1244 708 1262 L236 1262 Q193 1262 162 1296 Q135 1327 135 1366 Q135 1411 169 1443 Q198 1469 236 1469 L1610 1469 Q1736 1469 1807 1394 Q1861 1338 1861 1204 Q1861 1160 1859 1074 Q1857 1006 1854 847 Q1847 397 1825 205 Q1793 -64 1700 -171 Q1606 -279 1408 -279 Q1273 -279 1127 -252 Q892 -209 892 -100 Q892 -52 924 -19 Q942 -1 975 -1 Q1033 -1 1105 -18 Q1282 -61 1389 -61 Q1503 -61 1548 2 Q1610 92 1626 450 Q1644 837 1644 1144 Q1644 1217 1620 1240 Q1595 1262 1520 1262 L929 1262 Z" /><glyph glyph-name="uni5206" unicode="&#x5206;" d="M413 772 Q347 708 311 682 Q242 630 191 630 Q150 630 118 666 Q89 700 89 739 Q89 794 196 880 Q299 961 421 1102 Q551 1252 632 1412 Q684 1516 721 1536 Q739 1546 760 1546 Q809 1546 843 1510 Q868 1484 868 1453 Q868 1386 782 1238 Q648 1005 440 798 Q468 813 498 813 L1413 813 Q1522 813 1576 751 Q1634 684 1628 601 Q1627 594 1627 593 L1609 88 Q1602 -100 1562 -167 Q1495 -280 1318 -280 Q1107 -280 977 -217 Q929 -193 929 -136 Q929 -89 959 -61 Q982 -40 1009 -40 Q1048 -40 1105 -55 Q1211 -84 1307 -84 Q1361 -84 1382 -49 Q1403 -12 1408 93 L1427 535 L1427 540 Q1433 623 1322 623 L944 623 L941 592 Q928 463 914 396 Q840 43 566 -150 Q381 -281 280 -281 Q245 -281 216 -248 Q189 -216 189 -181 Q189 -118 334 -43 Q598 93 684 334 Q719 431 742 623 L498 623 Q452 623 423 654 Q399 680 399 720 Q399 747 413 772 ZM1266 1589 Q1290 1589 1318 1573 Q1353 1552 1407 1442 Q1446 1363 1550 1207 Q1618 1107 1738 984 Q1781 940 1922 824 Q1978 777 1978 724 Q1978 682 1943 650 Q1909 620 1875 623 Q1826 628 1743 693 Q1580 823 1408 1046 Q1328 1149 1239 1301 Q1162 1434 1159 1494 Q1157 1529 1193 1560 Q1226 1589 1266 1589 Z" /><glyph glyph-name="uni5236" unicode="&#x5236;" d="M581 1327 L581 1504 Q581 1537 607 1560 Q634 1584 671 1584 Q716 1584 745 1552 Q765 1530 765 1504 L765 1327 L1107 1327 Q1202 1327 1202 1239 Q1202 1195 1173 1169 Q1149 1146 1107 1146 L765 1146 L765 954 L1175 954 Q1267 954 1267 865 Q1267 821 1237 792 Q1214 770 1175 770 L765 770 L765 611 L1007 611 Q1178 611 1178 423 L1178 46 Q1178 -163 966 -163 Q828 -163 828 -62 Q828 -18 852 4 Q866 17 885 17 Q892 17 902 15 Q935 10 943 10 Q969 10 982 23 Q994 35 994 76 L994 341 Q994 393 974 412 Q957 427 921 427 L765 427 L765 -210 Q765 -247 734 -274 Q706 -299 670 -299 Q630 -299 604 -270 Q581 -244 581 -210 L581 427 L429 427 Q393 427 376 410 Q362 396 362 352 L362 -89 Q362 -126 333 -151 Q305 -175 269 -175 Q226 -175 197 -144 Q175 -121 175 -89 L175 412 Q175 526 226 571 Q271 611 373 611 L581 611 L581 770 L149 770 Q114 770 89 798 Q65 826 65 862 Q65 904 96 932 Q119 954 149 954 L581 954 L581 1146 L361 1146 Q290 971 198 971 Q155 971 126 1002 Q106 1023 106 1050 Q106 1078 153 1154 Q211 1247 265 1451 Q282 1515 308 1531 Q330 1545 356 1545 Q402 1545 433 1512 Q455 1489 455 1459 Q455 1415 425 1327 L581 1327 ZM1532 1303 L1532 269 Q1532 164 1436 164 Q1346 164 1346 269 L1346 1303 Q1346 1358 1380 1389 Q1405 1412 1439 1412 Q1478 1412 1505 1382 Q1532 1352 1532 1303 ZM1913 1481 L1913 -38 Q1913 -179 1850 -231 Q1788 -283 1687 -283 Q1486 -283 1370 -230 Q1314 -204 1314 -140 Q1314 -91 1346 -60 Q1363 -42 1389 -42 Q1419 -42 1455 -50 Q1577 -76 1651 -76 Q1677 -76 1705 -59 Q1724 -48 1724 15 L1724 1481 Q1724 1533 1757 1563 Q1785 1587 1818 1587 Q1858 1587 1887 1555 Q1913 1527 1913 1481 Z" /><glyph glyph-name="uni524A" unicode="&#x524a;" d="M749 1056 L901 1056 Q1013 1056 1062 1028 Q1138 985 1138 857 L1138 -60 Q1138 -189 1078 -243 Q1022 -293 908 -293 Q732 -293 641 -250 Q589 -225 589 -162 Q589 -118 617 -93 Q641 -72 669 -72 Q690 -72 753 -86 Q820 -101 882 -101 Q949 -101 949 -5 L949 158 L363 158 L363 -209 Q363 -255 335 -280 Q309 -303 270 -303 Q224 -303 197 -273 Q174 -248 174 -209 L174 852 Q174 966 229 1013 Q279 1056 349 1056 L560 1056 L560 1506 Q560 1543 590 1569 Q619 1594 656 1594 Q697 1594 726 1563 Q749 1538 749 1506 L749 1056 ZM949 328 L949 519 L363 519 L363 328 L949 328 ZM949 689 L949 791 Q949 849 933 862 Q916 877 880 877 L430 877 Q391 877 377 861 Q363 845 363 802 L363 689 L949 689 ZM1484 1288 L1484 256 Q1484 204 1453 177 Q1426 153 1385 153 Q1295 153 1295 256 L1295 1287 Q1295 1341 1329 1372 Q1356 1396 1391 1396 Q1430 1396 1457 1366 Q1484 1335 1484 1288 ZM1071 1534 Q1108 1534 1143 1500 Q1162 1481 1162 1449 Q1162 1416 1131 1333 Q1104 1262 1037 1155 Q978 1061 921 1061 Q882 1061 854 1092 Q832 1117 832 1149 Q832 1178 865 1229 Q948 1356 984 1447 Q1019 1534 1071 1534 ZM239 1521 Q293 1515 332 1462 Q360 1423 413 1323 Q479 1198 479 1156 Q479 1117 444 1086 Q414 1059 381 1059 Q337 1059 299 1139 Q253 1234 178 1357 Q145 1410 145 1435 Q145 1469 176 1495 Q210 1524 239 1521 ZM1893 1483 L1893 -36 Q1893 -279 1638 -279 Q1463 -279 1365 -231 Q1317 -207 1317 -147 Q1317 -100 1347 -72 Q1368 -52 1396 -52 Q1424 -52 1465 -62 Q1555 -85 1629 -85 Q1663 -85 1678 -68 Q1698 -45 1698 15 L1698 1483 Q1698 1530 1731 1560 Q1759 1585 1795 1585 Q1837 1585 1867 1552 Q1893 1524 1893 1483 Z" /><glyph glyph-name="uni5305" unicode="&#x5305;" d="M634 1405 L1582 1405 Q1744 1405 1796 1316 Q1822 1272 1822 1166 L1822 1003 Q1822 832 1791 554 Q1770 359 1697 269 Q1612 164 1406 164 Q1131 164 1131 300 Q1131 339 1155 368 L526 368 L526 80 Q526 5 561 -20 Q613 -58 769 -58 L1472 -58 Q1600 -58 1630 -50 Q1695 -33 1723 41 Q1734 70 1746 166 Q1756 247 1841 247 Q1894 247 1930 208 Q1958 178 1958 129 Q1958 47 1930 -56 Q1902 -162 1825 -206 Q1779 -233 1722 -239 Q1628 -248 1478 -248 L816 -248 Q548 -248 460 -210 Q401 -184 373 -146 Q331 -87 331 28 L331 821 Q331 890 343 921 Q249 809 188 809 Q140 809 104 847 Q77 875 77 911 Q77 946 119 995 Q247 1143 287 1202 Q354 1301 441 1505 Q466 1566 494 1582 Q517 1595 545 1595 Q602 1595 637 1557 Q661 1530 661 1499 Q661 1466 634 1405 ZM546 1215 Q489 1115 408 1004 Q437 1022 463 1029 Q486 1035 548 1035 L1116 1035 Q1187 1035 1216 1025 Q1292 997 1320 922 Q1330 895 1330 827 L1330 576 Q1330 494 1307 454 Q1283 413 1241 390 Q1255 388 1283 382 Q1346 370 1398 370 Q1506 370 1553 450 Q1602 535 1606 810 Q1607 906 1614 1066 Q1615 1092 1615 1105 Q1615 1171 1588 1197 Q1569 1215 1526 1215 L546 1215 ZM526 552 L1057 552 Q1105 552 1123 582 Q1136 603 1136 702 Q1136 808 1118 828 Q1098 851 1057 851 L604 851 Q526 851 526 773 L526 552 Z" /><glyph glyph-name="uni5364" unicode="&#x5364;" d="M1051 562 Q1055 566 1072 581 Q1136 639 1284 800 Q1340 860 1370 884 Q1396 904 1425 904 Q1454 904 1478 888 Q1520 861 1520 819 Q1520 776 1446 688 Q1379 610 1206 448 L1264 405 Q1379 320 1466 251 Q1546 188 1546 131 Q1546 94 1521 65 Q1493 34 1456 34 Q1421 34 1366 71 Q1334 94 1176 217 L1080 291 L1071 298 L1051 314 Q962 246 854 175 Q758 112 639 59 Q562 24 525 24 Q496 24 471 53 Q443 86 443 126 Q443 181 543 227 Q701 300 894 436 Q761 536 574 662 Q516 701 516 749 Q516 788 548 815 Q571 835 599 835 Q654 835 924 651 Q1019 586 1051 562 ZM850 1113 L850 1500 Q850 1533 880 1559 Q912 1587 955 1587 Q1003 1587 1035 1553 Q1057 1529 1057 1500 L1057 1433 L1828 1433 Q1868 1433 1893 1404 Q1917 1378 1917 1343 Q1917 1302 1887 1275 Q1862 1252 1828 1252 L1057 1252 L1057 1113 L1570 1113 Q1667 1113 1707 1098 Q1805 1060 1843 962 Q1858 924 1858 829 L1858 47 Q1858 -46 1843 -85 Q1806 -184 1707 -222 Q1668 -237 1570 -237 L480 -237 Q384 -237 344 -222 Q244 -185 207 -85 Q192 -46 192 47 L192 829 Q192 1012 303 1078 Q355 1109 409 1112 Q428 1113 480 1113 L850 1113 ZM1534 926 L516 926 Q454 926 423 899 Q393 871 393 805 L393 74 Q393 -50 516 -50 L1534 -50 Q1657 -50 1657 74 L1657 805 Q1657 871 1627 899 Q1596 926 1534 926 Z" /><glyph glyph-name="uni53BF" unicode="&#x53bf;" d="M914 281 Q758 83 533 -83 Q628 -78 684 -76 Q1131 -62 1457 -23 L1449 -15 Q1368 57 1332 92 Q1280 143 1280 182 Q1280 218 1305 245 Q1332 272 1368 272 Q1407 272 1464 227 Q1520 182 1626 75 Q1695 5 1737 -35 Q1794 -89 1830 -131 Q1870 -177 1870 -221 Q1870 -259 1836 -287 Q1811 -307 1781 -307 Q1734 -307 1667 -234 Q1637 -202 1617 -182 L1544 -192 Q1162 -240 461 -264 Q397 -267 376 -268 Q320 -270 305 -270 Q136 -270 136 -158 Q136 -126 150 -106 Q163 -88 208 -67 Q423 31 653 281 L176 281 Q133 281 107 310 Q83 336 83 372 Q83 413 112 439 Q139 463 176 463 L336 463 L336 1266 Q336 1393 398 1449 Q451 1497 562 1497 L1472 1497 Q1717 1497 1717 1257 L1717 463 L1894 463 Q1936 463 1964 433 Q1987 407 1987 372 Q1987 331 1957 305 Q1930 281 1894 281 L914 281 ZM537 1149 L1516 1149 L1516 1236 Q1516 1283 1500 1298 Q1480 1318 1423 1318 L630 1318 Q566 1318 552 1301 Q537 1282 537 1242 L537 1149 ZM537 988 L537 812 L1516 812 L1516 988 L537 988 ZM537 651 L537 463 L1516 463 L1516 651 L537 651 Z" /><glyph glyph-name="uni5403" unicode="&#x5403;" d="M332 1466 L505 1466 Q573 1466 601 1456 Q676 1429 703 1355 Q713 1327 713 1259 L713 63 Q713 -5 703 -33 Q675 -108 601 -135 Q574 -145 505 -145 L332 -145 Q264 -145 236 -135 Q162 -108 134 -33 Q124 -5 124 63 L124 1259 Q124 1327 134 1355 Q161 1429 236 1456 Q264 1466 332 1466 ZM439 1276 L401 1276 Q355 1276 324 1236 Q308 1215 308 1167 L308 160 Q308 48 386 45 L449 45 Q529 45 529 160 L529 1167 Q529 1270 439 1276 ZM1202 1337 L1873 1337 Q1916 1337 1943 1307 Q1967 1280 1967 1242 Q1967 1198 1937 1170 Q1911 1147 1873 1147 L1114 1147 Q936 823 824 823 Q782 823 749 858 Q724 886 724 915 Q724 952 786 1025 Q900 1160 972 1315 Q1001 1377 1043 1501 Q1075 1593 1140 1593 Q1183 1593 1215 1560 Q1243 1531 1243 1492 Q1243 1451 1202 1337 ZM1505 736 L1039 736 Q991 736 962 768 Q937 795 937 832 Q937 873 967 900 Q995 926 1043 926 L1691 926 Q1759 926 1793 886 Q1819 857 1819 824 Q1819 721 1512 496 Q1318 353 1130 171 Q1074 117 1074 55 Q1074 -13 1184 -36 Q1284 -57 1466 -57 Q1653 -57 1713 -27 Q1765 -1 1765 132 L1765 149 L1764 229 Q1764 346 1858 346 Q1907 346 1938 314 Q1962 290 1962 239 Q1962 -20 1929 -91 Q1880 -199 1762 -222 Q1664 -241 1430 -241 Q1087 -241 964 -171 Q913 -142 882 -91 Q850 -37 850 22 Q850 128 930 237 Q986 312 1246 530 Q1369 633 1505 736 Z" /><glyph glyph-name="uni559C" unicode="&#x559c;" d="M1414 569 Q1441 548 1441 518 Q1441 485 1412 436 L1886 436 Q1926 436 1948 412 Q1966 392 1966 362 Q1966 328 1942 305 Q1921 286 1886 286 L166 286 Q132 286 110 310 Q91 332 91 361 Q91 395 115 417 Q136 436 166 436 L649 436 Q611 512 611 540 Q611 555 619 569 L488 569 Q306 569 306 746 L306 780 Q306 957 486 957 L1560 957 Q1743 957 1743 780 L1743 746 Q1743 569 1562 569 L1414 569 ZM1269 569 L792 569 Q813 541 857 436 L1184 436 Q1213 479 1244 533 Q1259 559 1269 569 ZM579 702 L1472 702 Q1510 702 1529 724 Q1546 744 1546 766 Q1546 789 1527 806 Q1506 824 1469 824 L577 824 Q506 824 506 763 Q506 702 579 702 ZM932 1183 L932 1288 L199 1288 Q166 1288 143 1314 Q123 1336 123 1363 Q123 1395 149 1418 Q172 1438 199 1438 L932 1438 L932 1505 Q932 1540 960 1564 Q990 1590 1030 1590 Q1076 1590 1106 1557 Q1128 1533 1128 1505 L1128 1438 L1846 1438 Q1886 1438 1909 1413 Q1927 1393 1927 1364 Q1927 1330 1903 1308 Q1881 1288 1846 1288 L1128 1288 L1128 1183 L1745 1183 Q1785 1183 1807 1159 Q1824 1140 1824 1113 Q1824 1082 1802 1060 Q1781 1041 1745 1041 L299 1041 Q266 1041 243 1067 Q224 1087 224 1112 Q224 1141 249 1163 Q271 1183 299 1183 L932 1183 ZM463 203 L1589 203 Q1650 203 1676 194 Q1746 168 1771 100 Q1780 75 1780 18 L1780 -66 Q1780 -163 1729 -209 Q1684 -250 1592 -250 L465 -250 Q405 -250 378 -240 Q275 -203 275 -66 L275 18 Q275 116 326 162 Q371 203 463 203 ZM549 -108 L1507 -108 Q1582 -108 1582 -24 Q1582 61 1505 61 L548 61 Q473 61 473 -23 Q473 -108 549 -108 Z" /><glyph glyph-name="uni56FD" unicode="&#x56fd;" d="M916 293 L916 604 L610 604 Q577 604 554 630 Q531 656 531 690 Q531 729 558 754 Q580 774 610 774 L916 774 L916 994 L565 994 Q530 994 506 1021 Q483 1048 483 1082 Q483 1122 512 1149 Q535 1170 565 1170 L1478 1170 Q1517 1170 1543 1141 Q1565 1117 1565 1083 Q1565 1043 1536 1015 Q1513 994 1478 994 L1109 994 L1109 774 L1426 774 Q1466 774 1491 747 Q1512 723 1512 689 Q1512 651 1484 626 Q1459 604 1426 604 L1109 604 L1109 293 L1373 293 Q1351 309 1306 393 Q1253 490 1253 520 Q1253 551 1278 571 Q1304 591 1336 591 Q1381 591 1418 539 Q1496 430 1496 366 Q1496 318 1453 293 L1523 293 Q1562 293 1588 265 Q1610 240 1610 206 Q1610 166 1581 138 Q1558 117 1523 117 L524 117 Q490 117 466 145 Q443 171 443 205 Q443 245 472 272 Q494 293 524 293 L916 293 ZM1882 1243 L1882 39 Q1882 -47 1869 -83 Q1834 -174 1741 -210 Q1703 -225 1612 -225 L429 -225 Q340 -225 302 -211 Q208 -176 173 -83 Q159 -47 159 39 L159 1243 Q159 1329 173 1365 Q209 1457 302 1492 Q340 1506 429 1506 L1612 1506 Q1703 1506 1741 1492 Q1833 1456 1868 1365 Q1882 1330 1882 1243 ZM1583 1327 L458 1327 Q405 1327 379 1304 Q352 1280 352 1224 L352 61 Q352 -46 458 -46 L1583 -46 Q1689 -46 1689 61 L1689 1224 Q1689 1280 1662 1304 Q1636 1327 1583 1327 Z" /><glyph glyph-name="uni56FE" unicode="&#x56fe;" d="M638 313 Q657 313 876 276 Q1028 250 1129 226 Q1241 200 1281 192 Q1421 166 1453 125 Q1470 104 1470 77 Q1470 39 1444 14 Q1424 -4 1399 -4 Q1354 -4 1260 27 Q1090 83 654 144 Q537 161 537 233 Q537 266 562 290 Q588 313 638 313 ZM831 545 Q859 547 1037 512 Q1221 475 1278 451 Q1332 428 1332 385 Q1332 346 1307 321 Q1289 304 1267 304 Q1241 304 1176 324 Q1092 349 849 392 Q785 403 768 427 Q756 445 756 469 Q756 540 831 545 ZM1876 1248 L1876 38 Q1876 -47 1863 -83 Q1829 -173 1737 -209 Q1700 -223 1609 -223 L440 -223 Q351 -223 313 -209 Q220 -175 185 -83 Q172 -47 172 38 L172 1248 Q172 1334 186 1369 Q221 1460 313 1494 Q350 1508 440 1508 L1609 1508 Q1700 1508 1737 1494 Q1828 1459 1862 1369 Q1876 1334 1876 1248 ZM704 921 Q568 797 496 797 Q463 797 437 827 Q414 853 414 884 Q414 916 448 948 Q460 959 524 1003 Q646 1086 717 1193 Q782 1292 796 1305 Q821 1329 848 1335 L465 1335 Q412 1335 386 1312 Q359 1288 359 1232 L359 57 Q359 -50 465 -50 L1583 -50 Q1689 -50 1689 57 L1689 1232 Q1689 1288 1662 1312 Q1636 1335 1583 1335 L872 1335 Q888 1332 901 1325 Q948 1298 948 1250 Q948 1230 937 1203 L1329 1203 Q1467 1203 1467 1107 Q1467 1022 1324 879 Q1265 821 1185 764 Q1235 741 1286 722 Q1488 642 1574 622 Q1647 604 1663 580 Q1674 563 1674 538 Q1674 499 1651.5 472.5 Q1629 446 1597 446 Q1548 446 1431 490 Q1140 599 1026 665 Q977 637 889 590 Q845 567 641 493 Q495 440 453 440 Q426 440 404 465 Q383 490 383 522 Q383 547 398 567 Q420 595 525 624 Q691 669 873 766 Q795 826 704 921 ZM816 1031 Q907 932 1024 853 Q1106 906 1157 952 Q1218 1006 1218 1036 Q1218 1051 1192 1051 L834 1051 L826 1043 L823 1039 L816 1031 Z" /><glyph glyph-name="uni5927" unicode="&#x5927;" d="M1154 964 L1165 933 Q1289 598 1442 399 Q1539 274 1800 25 Q1848 -21 1894 -56 Q1976 -121 1976 -163 Q1976 -217 1928 -263 Q1896 -293 1865 -293 Q1774 -293 1500 -2 Q1221 293 1063 659 L1057 672 Q968 363 742 113 Q548 -101 336 -223 Q228 -285 186 -285 Q148 -285 110 -243 Q74 -203 74 -155 Q74 -99 172 -45 Q612 197 799 600 Q859 730 899 964 L216 964 Q163 964 135 995 Q110 1024 110 1066 Q110 1111 141 1138 Q173 1165 216 1165 L919 1165 Q920 1189 920 1213 L920 1466 Q920 1518 956 1554 Q984 1581 1026 1581 Q1073 1581 1107 1546 Q1133 1519 1133 1471 L1133 1216 Q1133 1205 1132 1165 L1849 1165 Q1891 1165 1919 1135 Q1943 1109 1943 1065 Q1943 964 1849 964 L1154 964 Z" /><glyph glyph-name="uni5929" unicode="&#x5929;" d="M880 893 Q902 1062 902 1257 L902 1274 L312 1274 Q276 1274 251 1302 Q223 1334 223 1376 Q223 1422 256 1452 Q281 1475 312 1475 L1734 1475 Q1776 1475 1805 1442 Q1832 1412 1832 1374 Q1832 1330 1798 1299 Q1770 1274 1734 1274 L1115 1274 L1115 1255 Q1115 1058 1100 893 L1833 893 Q1875 893 1905 860 Q1931 830 1931 792 Q1931 748 1897 717 Q1869 692 1833 692 L1157 692 Q1265 433 1416 272 Q1593 83 1797 -8 Q1914 -60 1959 -108 Q1981 -130 1981 -169 Q1981 -207 1955 -240 Q1926 -279 1883 -279 Q1826 -279 1666 -179 Q1419 -25 1288 112 Q1136 269 1020 522 Q941 283 753 86 Q628 -45 426 -166 Q231 -283 158 -283 Q118 -283 84 -246 Q52 -210 52 -162 Q52 -134 65 -114 Q81 -88 145 -57 Q723 220 842 692 L207 692 Q170 692 145 720 Q117 753 117 794 Q117 839 150 870 Q175 893 207 893 L880 893 Z" /><glyph glyph-name="uni5939" unicode="&#x5939;" d="M1020 381 Q929 148 736 -13 Q569 -152 385 -235 Q250 -296 180 -296 Q146 -296 118 -263 Q87 -226 87 -181 Q87 -154 104 -131 Q125 -102 215 -72 Q408 -8 582 127 Q762 267 829 452 L181 452 Q145 452 120 481 Q94 510 94 548 Q94 591 125 620 Q149 642 181 642 L878 642 Q916 880 916 1153 L257 1153 Q221 1153 195 1182 Q170 1211 170 1249 Q170 1292 201 1321 Q225 1343 257 1343 L916 1343 L917 1488 Q917 1538 950 1567 Q979 1593 1021 1593 Q1124 1593 1124 1481 L1124 1343 L1791 1343 Q1829 1343 1855 1313 Q1880 1286 1880 1250 Q1880 1207 1847 1176 Q1823 1153 1791 1153 L1124 1153 Q1124 861 1089 642 L1883 642 Q1921 642 1947 612 Q1972 584 1972 547 Q1972 469 1883 452 L1191 452 Q1295 276 1434 161 Q1607 20 1853 -63 Q1968 -102 1968 -178 Q1968 -225 1933 -257 Q1906 -282 1869 -282 Q1801 -282 1690 -235 Q1579 -188 1462 -109 Q1210 61 1067 299 Q1047 331 1020 381 ZM475 1138 Q526 1138 604 1028 Q744 834 744 757 Q744 723 709 693 Q678 666 643 666 Q613 666 583 699 Q567 716 532 777 Q477 872 399 991 Q378 1024 378 1055 Q378 1088 411 1113 Q443 1138 475 1138 ZM1577 1130 Q1615 1130 1643 1106 Q1668 1083 1665 1046 Q1659 957 1534 764 Q1482 684 1459 668 Q1435 651 1407 651 Q1367 651 1338 681 Q1313 707 1313 741 Q1313 767 1330 803 Q1333 809 1381 889 Q1462 1033 1483 1064 Q1512 1107 1535 1121 Q1550 1130 1577 1130 Z" /><glyph glyph-name="uni5B50" unicode="&#x5b50;" d="M916 748 Q892 779 880 795 Q813 881 813 919 Q813 948 832 974 Q863 1019 1003 1063 Q1079 1087 1315 1184 Q1376 1209 1425.5 1240 Q1475 1271 1475 1284 Q1475 1292 1443 1292 L310 1292 Q274 1292 246 1324 Q219 1354 219 1394 Q219 1439 251 1470 Q276 1493 310 1493 L1686 1493 Q1831 1493 1831 1395 Q1831 1280 1648 1157 Q1555 1094 1414 1023 Q1241 935 1170 911 Q1097 887 1097 862 Q1097 855 1108 841 Q1142 800 1176 748 L1890 748 Q1931 748 1959 717 Q1985 688 1985 648 Q1985 601 1952 571 Q1926 547 1890 547 L1288 547 Q1365 375 1365 193 Q1365 38 1296 -81 Q1174 -291 847 -291 Q661 -291 536 -231 Q473 -201 473 -130 Q473 -80 506 -48 Q529 -27 554 -27 Q582 -27 625 -41 Q750 -81 868 -81 Q1010 -81 1086 6 Q1156 85 1156 197 Q1156 348 1048 547 L143 547 Q109 547 84 576 Q58 606 58 648 Q58 695 90 726 Q113 748 143 748 L916 748 Z" /><glyph glyph-name="uni5B58" unicode="&#x5b58;" d="M1373 498 L1870 498 Q1912 498 1940 466 Q1964 439 1964 404 Q1964 364 1933 335 Q1906 311 1870 311 L1497 311 Q1561 186 1561 60 Q1561 -88 1472 -184 Q1376 -289 1181 -289 Q973 -289 869 -230 Q814 -199 814 -146 Q814 -101 844 -69 Q862 -50 894 -50 Q916 -50 1016 -78 Q1080 -95 1176 -95 Q1267 -95 1308 -48 Q1355 6 1355 83 Q1355 184 1261 311 L718 311 Q673 311 645 341 Q622 367 622 403 Q622 446 652 475 Q675 498 718 498 L1132 498 Q1131 506 1131 513 Q1131 561 1209 626 Q1233 645 1375 746 Q1429 784 1429 802 Q1429 815 1412 815 L852 815 Q813 815 787 844 Q763 871 763 906 Q763 947 794 976 Q819 999 852 999 L1636 999 Q1702 999 1736 962 Q1759 937 1759 902 Q1759 835 1655 745 Q1532 638 1416 569 Q1365 538 1365 517 Q1365 513 1373 498 ZM907 1365 L1847 1365 Q1890 1365 1920 1332 Q1945 1304 1945 1269 Q1945 1229 1913 1200 Q1885 1175 1847 1175 L842 1175 Q759 958 566 700 L566 -205 Q566 -248 533 -278 Q503 -304 466 -304 Q422 -304 391 -270 Q365 -241 365 -205 L365 468 Q345 449 324 429 Q231 343 177 343 Q137 343 106 378 Q77 412 77 447 Q77 485 150 551 Q251 642 400 822 Q511 957 619 1175 L195 1175 Q143 1175 115 1206 Q92 1232 92 1270 Q92 1314 121 1340 Q149 1365 195 1365 L693 1365 Q701 1395 707 1424 Q731 1548 770 1574 Q795 1591 826 1591 Q877 1591 910 1558 Q934 1533 934 1499 Q934 1467 907 1365 Z" /><glyph glyph-name="uni5BB3" unicode="&#x5bb3;" d="M1123 335 L1546 335 Q1615 335 1644 324 Q1719 297 1747 224 Q1757 197 1757 138 L1757 -49 Q1757 -110 1747 -137 Q1719 -211 1643 -238 Q1614 -249 1548 -249 L513 -249 Q446 -249 416 -238 Q340 -211 313 -137 Q303 -110 303 -49 L303 138 Q303 197 312 224 Q339 297 416 324 Q445 335 511 335 L915 335 L915 447 L206 447 Q167 447 144 473 Q124 495 124 524 Q124 558 150 582 Q172 602 206 602 L915 602 L915 705 L404 705 Q365 705 341 731 Q322 752 322 780 Q322 814 348 837 Q369 857 404 857 L915 857 L915 955 L386 955 Q337 955 314 993 Q306 1008 304 1026 Q275 991 227 991 Q183 991 154 1022 Q132 1045 132 1077 L132 1232 Q132 1425 329 1425 L923 1425 Q919 1438 915 1448 Q893 1499 893 1522 Q893 1543 916 1562 Q951 1592 1008 1592 Q1063 1592 1093 1551 Q1126 1506 1147 1425 L1782 1425 Q1945 1425 1945 1294 Q1945 1227 1926 1136 Q1903 1029 1866 1002 Q1842 985 1811 985 Q1765 985 1733 1016 Q1719 955 1646 955 L1123 955 L1123 857 L1626 857 Q1672 857 1695 831 Q1714 809 1714 780 Q1714 748 1690 727 Q1666 705 1626 705 L1123 705 L1123 602 L1843 602 Q1887 602 1910 576 Q1930 553 1930 524 Q1930 491 1905.5 469 Q1881 447 1843 447 L1123 447 L1123 335 ZM1123 1107 L1646 1107 Q1688 1107 1713 1083 Q1717 1101 1731 1142 Q1744 1182 1744 1211 Q1744 1252 1697 1252 L401 1252 Q353 1252 336 1233 Q322 1216 322 1173 L322 1079 Q346 1107 386 1107 L915 1107 L915 1154 Q915 1193 941 1214 Q974 1241 1019 1241 Q1071 1241 1103 1209 Q1123 1190 1123 1154 L1123 1107 ZM576 -85 L1485 -85 Q1520 -85 1540 -63 Q1556 -45 1556 42 Q1556 138 1535 157 Q1516 174 1483 174 L575 174 Q539 174 520 152 Q503 133 503 43 Q503 -50 524 -68 Q544 -85 576 -85 Z" /><glyph glyph-name="uni5C0F" unicode="&#x5c0f;" d="M1151 1494 L1151 -4 Q1151 -158 1085 -216 Q1019 -273 852 -273 Q636 -273 535 -216 Q471 -181 471 -115 Q471 -65 504 -35 Q523 -16 550 -16 Q575 -16 608 -24 Q761 -59 847 -59 Q891 -59 912 -37 Q932 -14 932 61 L932 1494 Q932 1537 965 1566 Q996 1594 1038 1594 Q1089 1594 1125 1555 Q1151 1527 1151 1494 ZM1499 1137 Q1549 1134 1585 1093 Q1646 1022 1794 662 Q1841 547 1881 420 Q1936 244 1936 177 Q1936 129 1897 94 Q1863 64 1823 64 Q1796 64 1769 84 Q1726 116 1683 314 Q1662 411 1576 612 Q1479 837 1434 916 Q1389 996 1387 1046 Q1386 1077 1419 1107 Q1456 1139 1499 1137 ZM504 1128 Q557 1128 593 1090 Q627 1055 619 1000 Q605 895 521 668 Q427 411 390 323 Q353 235 320 186 Q264 105 202 105 Q154 105 123 139 Q98 167 98 200 Q98 236 120 277 L181 391 Q230 483 302 685 Q376 892 400 1012 Q416 1090 447 1112 Q471 1128 504 1128 Z" /><glyph glyph-name="uni5E72" unicode="&#x5e72;" d="M1133 1287 L1133 836 L1865 836 Q1909 836 1933 809 Q1964 775 1964 728 Q1964 679 1931 647 Q1906 623 1861 623 L1133 623 L1133 -188 Q1133 -244 1098 -274 Q1065 -303 1022 -303 Q972 -303 938 -267 Q912 -239 912 -191 L912 623 L184 623 Q137 623 110 654 Q83 686 83 725 Q83 766 102 795 Q130 836 184 836 L912 836 L912 1287 L303 1287 Q257 1287 231 1317 Q204 1349 204 1393 Q204 1444 238 1477 Q262 1500 303 1500 L1738 1500 Q1784 1500 1810 1470 Q1837 1438 1837 1393 Q1837 1343 1803 1311 Q1779 1287 1733 1287 L1133 1287 Z" /><glyph glyph-name="uni6015" unicode="&#x6015;" d="M1169 1337 Q1195 1433 1216 1488 Q1241 1551 1272 1570 Q1298 1584 1328 1584 Q1378 1584 1407 1553 Q1427 1532 1427 1508 Q1427 1479 1387 1352 Q1385 1344 1383 1337 L1644 1337 Q1715 1337 1744 1326 Q1820 1298 1849 1221 Q1860 1191 1860 1120 L1860 -33 Q1860 -105 1849 -134 Q1821 -211 1744 -239 Q1715 -250 1644 -250 L1017 -250 Q946 -250 917 -239 Q840 -211 812 -134 Q801 -105 801 -33 L801 746 Q778 683 715 683 Q680 683 663 707 Q645 733 619 882 Q603 970 575 1062 Q559 1114 559 1147 Q559 1179 583 1201 Q607 1222 645 1222 Q732 1222 774 979 Q782 931 791 887 Q799 853 801 837 L801 1120 Q801 1192 812.5 1226 Q824 1260 859 1292 Q898 1327 948 1335 Q964 1337 1017 1337 L1169 1337 ZM995 477 L998 172 Q999 19 1002 1 Q1013 -60 1091 -60 L1571 -60 Q1662 -60 1662 34 L1662 477 L995 477 ZM996 667 L1662 667 L1662 1053 Q1662 1147 1571 1147 L1091 1147 Q1038 1147 1013 1115 Q1002 1101 1000 1063 Q999 1057 998 933 L996 667 ZM542 1498 L542 -212 Q542 -248 512 -274 Q483 -300 444 -300 Q399 -300 370 -268 Q347 -243 347 -212 L347 1498 Q347 1535 377 1561 Q406 1587 444 1587 Q488 1587 519 1553 Q542 1528 542 1498 ZM225 1215 Q261 1215 283 1193 Q310 1165 303 1109 Q255 710 246 670 Q222 552 189 527 Q168 511 139 511 Q100 511 76 537 Q58 557 58 583 Q58 604 66 635 Q133 911 140 1092 Q145 1215 225 1215 Z" /><glyph glyph-name="uni6210" unicode="&#x6210;" d="M1274 267 Q1216 417 1180 574 Q1148 717 1114 1035 L1109 1083 L526 1083 Q469 1083 450 1047 Q438 1026 438 955 L438 833 L846 833 Q928 833 970 788 Q1011 745 1011 611 Q1011 313 982 164 Q965 77 916 30 Q862 -21 734 -21 Q519 -21 519 91 Q519 157 557 181 Q569 189 588 189 Q600 189 655 175 Q684 168 714 168 Q762 168 783 193 Q821 238 821 413 L821 595 Q821 646 775 646 L438 646 L438 582 Q438 332 383 79 Q348 -82 276 -206 Q232 -281 173 -281 Q122 -281 87 -245 Q65 -221 65 -197 Q65 -175 112 -73 Q173 59 195 156 Q234 324 234 626 L234 1027 Q234 1167 297 1222 Q356 1273 461 1273 L1094 1273 Q1084 1408 1084 1459 Q1084 1581 1181 1581 Q1234 1581 1256 1549 Q1275 1521 1279 1476 Q1286 1398 1289 1292 Q1290 1283 1290 1273 L1597 1273 Q1566 1282 1506 1342 Q1481 1366 1422 1422 Q1387 1454 1387 1479 Q1387 1508 1414 1539 Q1441 1570 1473 1570 Q1508 1570 1564 1525 Q1643 1462 1670 1434 Q1704 1398 1704 1360 Q1704 1309 1660 1281 Q1652 1276 1639 1273 L1830 1273 Q1875 1273 1903 1242 Q1927 1214 1927 1178 Q1927 1136 1896 1106 Q1872 1083 1832 1083 L1302 1083 Q1344 677 1419 450 Q1533 625 1609 862 Q1644 970 1706 970 Q1751 970 1784 935 Q1809 908 1809 877 Q1809 809 1723 612 Q1635 412 1552 296 Q1534 271 1504 233 Q1534 169 1564 117 Q1622 15 1701 -42 Q1710 -48 1720 -48 Q1757 -48 1770 112 Q1780 242 1813 267 Q1833 283 1862 283 Q1905 283 1932 253 Q1957 226 1957 176 Q1957 46 1919 -99 Q1869 -286 1744 -286 Q1664 -286 1569 -210 Q1467 -126 1365 68 Q1354 56 1342 43 Q1151 -159 979 -272 Q942 -296 905 -296 Q862 -296 828 -258 Q802 -229 802 -196 Q802 -138 916 -54 Q1112 89 1274 267 Z" /><glyph glyph-name="uni631E" unicode="&#x631e;" d="M1600 991 L1597 961 Q1718 765 1820 565 Q1981 249 1981 146 Q1981 109 1959 85 Q1936 59 1904 59 Q1861 59 1827 115 Q1818 130 1744 304 Q1684 444 1583 634 L1554 690 Q1507 483 1426 325 Q1297 73 1198 73 Q1157 73 1125 108 Q1100 134 1100 167 Q1100 205 1164 287 Q1363 545 1409 991 L1197 991 Q1141 991 1113 1023 Q1090 1050 1090 1088 Q1090 1181 1197 1181 L1421 1181 Q1425 1249 1425 1276 L1425 1303 L1424 1456 Q1424 1581 1523 1581 Q1616 1581 1616 1473 L1616 1319 Q1616 1293 1612 1181 L1865 1181 Q1907 1181 1933 1152 Q1957 1125 1957 1087 Q1957 1042 1926 1013 Q1902 991 1868 991 L1600 991 ZM483 1222 L604 1222 Q640 1222 667 1192 Q692 1163 692 1126 Q692 1083 661 1054 Q637 1032 604 1032 L483 1032 L483 677 Q494 683 563 721 Q590 736 614 736 Q643 736 670 706 Q697 675 697 634 Q697 575 619 528 Q559 491 483 460 L483 -73 Q483 -282 267 -282 Q69 -282 69 -165 Q69 -113 99 -86 Q119 -68 145 -68 Q163 -68 194 -76 Q222 -83 243 -83 Q261 -83 272 -71 Q288 -54 288 16 L288 387 Q194 356 145 356 Q109 356 86 384 Q59 416 59 462 Q59 495 77 519 Q95 543 182 565 Q215 573 288 598 L288 1032 L157 1032 Q118 1032 91 1063 Q66 1092 66 1129 Q66 1170 96 1198 Q123 1222 157 1222 L288 1222 L288 1486 Q288 1535 319 1563 Q347 1588 386 1588 Q430 1588 458 1557 Q483 1530 483 1486 L483 1222 ZM794 1526 Q859 1526 916 1411 Q1022 1198 1022 1136 Q1022 1093 990 1065 Q965 1042 927 1042 Q897 1042 877 1058 Q855 1075 832 1134 Q789 1239 739 1333 Q694 1417 694 1447 Q694 1474 722 1498 Q755 1526 794 1526 ZM868 137 L868 579 Q868 647 853 659 Q838 671 813 671 L759 671 Q727 671 702 699 Q678 726 678 766 Q678 811 709 839 Q734 861 761 861 L906 861 Q988 861 1022 821 Q1058 778 1058 691 L1058 142 Q1085 123 1124 78 Q1207 -19 1307 -39 Q1434 -66 1577 -66 L1877 -66 Q1937 -66 1967 -98 Q1989 -123 1989 -158 Q1989 -202 1958 -230 Q1930 -256 1875 -256 L1579 -256 Q1385 -256 1252 -228 Q1127 -201 1035 -84 Q999 -40 976 -40 Q936 -40 872 -129 Q789 -246 725 -246 Q686 -246 655 -212 Q629 -183 629 -149 Q629 -108 691 -40 Q806 86 868 137 Z" /><glyph glyph-name="uni6570" unicode="&#x6570;" d="M516 901 Q293 641 182 641 Q150 641 125 670 Q100 698 100 731 Q100 788 208 859 Q325 936 422 1024 L181 1024 Q145 1024 120 1052 Q97 1078 97 1112 Q97 1152 126 1178 Q149 1200 181 1200 L337 1200 Q313 1214 271 1289 Q256 1315 234 1346 Q191 1406 191 1438 Q191 1466 210 1489 Q237 1522 281 1522 Q319 1522 356 1478 Q387 1440 423 1375 Q458 1311 458 1276 Q458 1227 414 1200 L516 1200 L516 1502 Q516 1537 542 1561 Q570 1585 609 1585 Q654 1585 682 1555 Q703 1533 703 1502 L703 1200 L845 1200 Q776 1210 776 1278 Q776 1305 805 1348 Q848 1413 851 1417 Q893 1488 916 1501 Q938 1514 957 1514 Q977 1514 995 1503 Q1038 1478 1038 1427 Q1038 1372 957 1265 Q913 1207 866 1200 L1007 1200 Q1096 1200 1096 1113 Q1096 1071 1068 1044 Q1047 1024 1010 1024 L744 1024 Q874 953 928 914 Q1006 857 1006 799 Q1006 761 976 735 Q953 716 921 716 Q879 716 792 793 Q770 814 703 865 L703 748 Q703 707 675 681 Q651 659 616 659 Q610 659 599 660 Q633 631 633 599 Q633 579 611 528 L864 528 Q960 528 1004 478 Q1038 439 1038 393 Q1038 287 906 107 Q878 70 850 38 Q943 -16 985 -58 Q1013 -86 1014 -128 Q1026 -115 1130 -44 Q1283 60 1401 227 Q1396 235 1392 242 Q1290 405 1198 690 Q1132 600 1078 600 Q1034 600 1003 634 Q978 662 978 692 Q978 720 1075 886 Q1190 1086 1253 1451 Q1269 1548 1304 1573 Q1326 1589 1355 1589 Q1405 1589 1440 1553 Q1467 1525 1467 1487 Q1467 1406 1431 1285 Q1426 1267 1415 1229 L1881 1229 Q1920 1229 1948 1198 Q1973 1169 1973 1131 Q1973 1087 1940 1056 Q1914 1033 1881 1033 L1820 1033 Q1798 770 1765 625 Q1718 413 1629 240 Q1746 83 1887 -39 Q1952 -95 1967 -119 Q1987 -151 1987 -180 Q1987 -223 1950 -257 Q1920 -284 1883 -284 Q1846 -284 1797 -243 Q1676 -142 1518 60 Q1431 -62 1319 -157 Q1152 -299 1082 -299 Q1034 -299 1003 -245 Q989 -221 987 -194 Q962 -219 930 -219 Q897 -219 840 -179 Q788 -144 702 -90 Q639 -131 588 -157 Q539 -182 431 -224 Q252 -294 162 -294 Q129 -294 107 -267 Q82 -238 82 -199 Q82 -170 101 -148 Q123 -122 202 -103 Q365 -66 511 12 Q422 53 344 79 Q251 112 230 144 Q218 163 218 184 Q218 224 290 337 L302 355 L169 355 Q137 355 112 383 Q89 409 89 444 Q89 481 117 507 Q140 528 169 528 L398 528 Q425 580 439 611 Q475 685 528 685 Q533 685 544 684 Q516 708 516 748 L516 901 ZM1358 1033 Q1342 982 1323 934 Q1392 661 1511 430 Q1566 560 1599 710 Q1624 827 1645 1033 L1358 1033 ZM677 131 Q692 145 703 156 Q773 227 816 305 Q825 323 825 339 Q825 355 774 355 L516 355 Q505 337 500 328 Q488 306 485 301 Q457 257 457 248 Q457 225 553 190 Q565 186 677 131 Z" /><glyph glyph-name="uni65E5" unicode="&#x65e5;" d="M1765 1238 L1765 -2 Q1765 -74 1754 -104 Q1725 -183 1644 -213 Q1613 -224 1538 -224 L506 -224 Q432 -224 396 -212 Q360 -200 327 -163 Q291 -124 283 -72 Q280 -56 280 -2 L280 1238 Q280 1310 291 1340 Q320 1419 401 1449 Q431 1460 506 1460 L1538 1460 Q1613 1460 1644 1449 Q1725 1419 1754 1340 Q1765 1310 1765 1238 ZM481 561 L481 73 Q481 -31 584 -31 L1461 -31 Q1564 -31 1564 73 L1564 561 L481 561 ZM481 754 L1564 754 L1564 1163 Q1564 1267 1461 1267 L584 1267 Q481 1267 481 1163 L481 754 Z" /><glyph glyph-name="uni65FA" unicode="&#x65fa;" d="M547 -142 L359 -142 Q286 -142 256 -131 Q178 -102 150 -27 Q140 0 140 68 L140 1234 Q140 1302 150 1329 Q178 1404 256 1433 Q286 1444 362 1444 L559 1444 Q632 1444 663 1433 Q741 1405 769 1329 Q779 1302 779 1234 L779 68 Q779 0 769 -27 Q741 -102 663 -131 Q633 -142 547 -142 ZM333 588 Q335 485 335 430 Q335 378 327 185 Q324 118 341 87 Q365 44 408 44 L511 44 Q536 44 561 65 Q585 86 589 136 Q590 152 590 203 Q590 250 588 368 Q587 467 587 571 L587 588 L333 588 ZM332 773 L586 773 Q582 852 582 918 Q582 934 585 987 Q591 1092 591 1138 Q591 1191 578 1215 Q554 1258 511 1258 L408 1258 Q361 1258 341 1215 Q330 1190 330 1106 L331 1020 Q331 899 332 773 ZM1497 1275 L1497 785 L1819 785 Q1861 785 1887 756 Q1912 728 1912 689 Q1912 644 1878 612 Q1853 589 1819 589 L1497 589 L1497 -12 L1903 -12 Q1940 -12 1968 -43 Q1994 -73 1994 -111 Q1994 -155 1962 -184 Q1936 -208 1903 -208 L860 -208 Q819 -208 790 -175 Q764 -147 764 -111 Q764 -68 797 -37 Q824 -12 860 -12 L1290 -12 L1290 589 L972 589 Q926 589 896 622 Q870 650 870 690 Q870 733 900 760 Q927 785 972 785 L1290 785 L1290 1275 L921 1275 Q878 1275 848 1308 Q823 1335 823 1372 Q823 1416 856 1446 Q883 1471 921 1471 L1869 1471 Q1907 1471 1933 1441 Q1960 1411 1960 1373 Q1960 1329 1927 1298 Q1902 1275 1869 1275 L1497 1275 Z" /><glyph glyph-name="uni672C" unicode="&#x672c;" d="M921 921 Q847 771 799 698 Q671 506 566 384 Q494 300 349 158 Q216 28 149 28 Q102 28 67 66 Q40 96 40 130 Q40 180 154 268 Q208 310 421 529 Q503 614 604 750 Q705 886 755 980 Q789 1044 806 1081 L202 1081 Q164 1081 136 1112 Q110 1142 110 1179 Q110 1221 142 1250 Q168 1274 202 1274 L921 1274 L921 1491 Q921 1530 950 1556 Q979 1582 1021 1582 Q1070 1582 1102 1547 Q1125 1521 1125 1491 L1125 1274 L1851 1274 Q1888 1274 1915 1244 Q1941 1215 1941 1176 Q1941 1099 1851 1081 L1239 1081 Q1324 908 1446 736 Q1636 467 1935 258 Q2003 211 2003 165 Q2003 121 1965 87 Q1933 58 1898 58 Q1837 58 1727 143 Q1493 323 1264 683 Q1171 831 1125 926 L1125 243 L1488 243 Q1523 243 1548 215 Q1573 186 1573 146 Q1573 102 1543 74 Q1520 53 1488 53 L1125 53 L1125 -214 Q1125 -249 1096 -275 Q1065 -302 1023 -302 Q974 -302 943 -269 Q921 -245 921 -214 L921 53 L571 53 Q531 53 505 84 Q480 112 480 147 Q480 190 512 219 Q538 243 571 243 L921 243 L921 921 Z" /><glyph glyph-name="uni6742" unicode="&#x6742;" d="M942 1383 L1289 1383 Q1357 1383 1386 1373 Q1459 1346 1485 1276 Q1494 1250 1494 1187 L1494 969 Q1494 908 1514 889 Q1535 871 1619 871 Q1627 871 1646 870 Q1657 870 1662 870 Q1716 870 1736 902 Q1753 931 1755 964 L1761 1047 Q1768 1136 1850 1136 Q1895 1136 1923 1105 Q1949 1074 1949 1022 Q1949 957 1931 858 Q1914 758 1851 722 Q1788 686 1624 686 Q1395 686 1336 755 Q1293 803 1293 894 L1293 1104 Q1293 1193 1205 1193 L916 1193 Q882 1039 811 943 Q695 784 450 685 Q280 616 187 616 Q148 616 124 644 Q98 674 98 714 Q98 751 128 776 Q161 804 302 847 Q623 944 707 1193 L309 1193 Q189 1193 189 1287 Q189 1331 220 1359 Q246 1383 291 1383 L741 1383 L741 1418 Q741 1535 775 1565 Q801 1587 843 1587 Q943 1587 943 1472 L943 1443 Q943 1420 942 1383 ZM920 559 L920 704 Q920 742 951 768 Q984 797 1030 797 Q1128 797 1128 691 L1128 559 L1857 559 Q1960 559 1960 466 Q1960 420 1929 392 Q1905 369 1857 369 L1128 369 L1128 -61 Q1128 -188 1078 -234 Q1009 -298 876 -298 Q727 -298 631 -251 Q582 -227 582 -157 Q582 -63 656 -63 Q673 -63 743 -78 Q784 -87 845 -87 Q874 -87 892 -74 Q912 -59 918 -28 Q920 -17 920 39 L920 369 L176 369 Q134 369 107 399 Q82 428 82 465 Q82 507 112 536 Q137 559 182 559 L920 559 ZM1419 322 Q1461 322 1514 282 Q1563 244 1734 80 Q1879 -60 1879 -131 Q1879 -168 1854 -194 Q1829 -220 1794 -220 Q1743 -220 1679 -137 Q1644 -92 1534 11 Q1435 110 1403 138 Q1334 196 1334 244 Q1334 280 1360 302 Q1384 322 1419 322 ZM561 321 Q606 321 637 286 Q663 258 661 225 Q656 128 382 -103 Q251 -212 196 -212 Q161 -212 129 -176 Q99 -142 99 -104 Q99 -75 129 -45 Q137 -37 201 12 Q333 115 457 256 Q514 321 561 321 Z" /><glyph glyph-name="uni679C" unicode="&#x679c;" d="M922 688 L462 688 Q396 688 370 698 Q298 724 271 798 Q261 826 261 895 L261 1305 Q261 1374 271 1402 Q298 1476 370 1502 Q396 1512 462 1512 L1584 1512 Q1650 1512 1676 1502 Q1747 1476 1775 1402 Q1785 1374 1785 1295 L1785 895 Q1785 826 1775 798 Q1747 724 1676 698 Q1650 688 1584 688 L1129 688 L1129 551 L1857 551 Q1895 551 1919 524 Q1943 497 1943 457 Q1943 413 1914 387 Q1892 367 1860 367 L1249 367 Q1317 304 1390 251 Q1573 119 1866 -10 Q1965 -54 1965 -115 Q1965 -158 1932 -188 Q1905 -213 1875 -213 Q1822 -213 1678 -144 Q1433 -26 1229 147 Q1183 186 1129 242 L1129 -221 Q1129 -252 1104 -274 Q1073 -301 1028 -301 Q974 -301 942 -266 Q922 -246 922 -221 L922 259 Q808 132 636 16 Q465 -100 277 -185 Q212 -215 163 -215 Q125 -215 97 -183 Q71 -154 71 -119 Q71 -59 166 -17 Q556 156 787 367 L202 367 Q162 367 137 394 Q114 421 114 458 Q114 501 144 529 Q168 551 204 551 L922 551 L922 688 ZM922 863 L922 1029 L461 1029 L461 970 Q460 863 539 863 L922 863 ZM1129 1029 L1129 863 L1506 863 Q1584 863 1583 957 L1583 1029 L1129 1029 ZM922 1337 L539 1337 Q463 1337 462 1242 L462 1181 L922 1181 L922 1337 ZM1129 1181 L1583 1181 L1583 1200 Q1583 1285 1571 1305 Q1550 1337 1506 1337 L1129 1337 L1129 1181 Z" /><glyph glyph-name="uni6865" unicode="&#x6865;" d="M305 1004 L165 1004 Q132 1004 108 1032 Q82 1061 82 1100 Q82 1144 113 1172 Q136 1194 165 1194 L346 1194 L346 1482 Q346 1526 377 1555 Q402 1578 438 1578 Q482 1578 512 1546 Q536 1519 536 1482 L536 1194 L686 1194 Q718 1194 741 1167 Q766 1139 766 1100 Q766 1055 733 1024 Q712 1004 686 1004 L536 1004 L536 1000 Q569 974 623 882 Q758 650 772 570 Q781 579 870 645 Q1033 767 1117 922 L869 922 Q833 922 807 951 Q782 979 782 1017 Q782 1058 812 1086 Q838 1109 877 1109 L1194 1109 Q1219 1198 1237 1295 L1196 1290 Q1067 1277 990 1277 Q869 1277 869 1372 Q869 1422 907 1445 Q945 1467 1048 1471 Q1454 1485 1650 1541 Q1723 1562 1765 1562 Q1801 1562 1824 1535 Q1850 1505 1850 1464 Q1850 1413 1804 1392 Q1698 1342 1426 1314 Q1424 1301 1421 1281 Q1410 1203 1388 1109 L1879 1109 Q1909 1109 1930 1084 Q1954 1056 1954 1016 Q1954 969 1923 940 Q1904 922 1879 922 L1608 922 Q1714 739 1926 601 Q1990 559 1990 520 Q1990 468 1952 428 Q1929 404 1901 404 Q1848 404 1723 514 L1723 -208 Q1723 -248 1692 -276 Q1663 -301 1626 -301 Q1582 -301 1552 -268 Q1528 -242 1528 -208 L1528 527 Q1528 573 1572 598 Q1594 611 1623 612 Q1495 752 1421 922 L1328 922 Q1255 755 1120 609 Q1136 614 1153 614 Q1196 614 1223 585 Q1247 560 1247 484 Q1247 282 1230 187 Q1192 -25 1034 -190 Q916 -312 851 -312 Q823 -312 802 -297 Q759 -264 759 -206 Q759 -174 790 -141 Q799 -130 870 -67 Q1001 49 1036 194 Q1059 289 1059 388 Q1059 401 1059 423 Q1058 478 1058 498 Q1058 532 1061 550 Q890 393 836 393 Q784 393 751 451 Q738 474 736 501 Q710 484 683 484 Q664 484 644 497 Q622 512 589 586 Q583 600 563 641 Q554 659 536 695 L536 -217 Q536 -256 508 -281 Q479 -306 436 -306 Q346 -306 346 -217 L346 628 Q310 503 261 382 Q204 242 138 242 Q99 242 73 272 Q50 298 50 326 Q50 366 85 431 Q222 692 305 1004 Z" /><glyph glyph-name="uni6B22" unicode="&#x6b22;" d="M1448 670 L1453 652 Q1602 175 1903 -74 Q1963 -124 1977 -145 Q1994 -172 1994 -196 Q1994 -237 1958 -269 Q1928 -297 1894 -297 Q1845 -297 1757 -225 Q1614 -108 1479 132 Q1420 235 1379 343 Q1326 172 1247 36 Q1127 -173 996 -262 Q940 -300 898 -300 Q854 -300 819 -262 Q792 -233 792 -198 Q792 -172 812 -145 Q823 -129 896 -70 Q1066 68 1173 338 Q1247 524 1269 847 Q1276 943 1309 969 Q1334 988 1367 988 Q1409 988 1440 958 Q1461 938 1461 871 Q1461 777 1448 670 ZM1270 1297 L1746 1297 Q1925 1297 1925 1149 Q1925 1000 1846 787 Q1799 660 1763 631 Q1738 611 1707 611 Q1656 611 1621 647 Q1601 667 1601 687 Q1601 714 1619 752 Q1651 821 1679 904 Q1720 1025 1720 1073 Q1720 1107 1664 1107 L1216 1107 Q1158 931 1097 813 Q1049 721 1012 674 Q972 624 926 624 Q880 624 847 659 Q823 684 823 715 Q823 750 879 840 Q975 992 1043 1220 Q1067 1300 1105 1473 Q1129 1579 1198 1579 Q1246 1579 1278 1546 Q1301 1522 1301 1485 Q1301 1428 1270 1297 ZM714 556 Q762 485 848 343 Q949 178 949 140 Q949 97 909 61 Q877 31 842 31 Q786 31 724 146 Q705 181 640 287 L612 333 Q576 262 505 153 Q376 -48 273 -135 Q203 -194 163 -194 Q120 -194 85 -155 Q57 -124 57 -89 Q57 -55 108 -1 Q280 183 359 307 Q422 405 485 533 Q416 629 373 689 Q302 787 171 943 Q128 994 128 1032 Q128 1072 163 1103 Q196 1132 230 1132 L232 1132 Q271 1132 343 1053 Q403 987 572 753 Q593 814 618 900 Q628 935 657 1073 Q674 1154 674 1191 Q674 1227 618 1227 L203 1227 Q157 1227 128 1259 Q103 1286 103 1324 Q103 1368 136 1398 Q163 1423 203 1423 L698 1423 Q883 1423 883 1278 Q883 1167 816 898 Q767 701 737 619 Q728 594 714 556 Z" /><glyph glyph-name="uni6B27" unicode="&#x6b27;" d="M1354 1295 L1771 1295 Q1956 1295 1956 1144 Q1956 1040 1910 896 Q1861 743 1827 710 Q1797 681 1761 681 Q1710 681 1674 717 Q1654 737 1654 754 Q1654 771 1728 972 Q1751 1036 1751 1072 Q1751 1105 1696 1105 L1302 1105 Q1262 988 1211 880 Q1117 683 1044 683 Q999 683 962 721 Q938 746 938 774 Q938 807 985 885 Q1071 1029 1116 1171 Q1151 1279 1195 1495 Q1215 1594 1283 1594 Q1333 1594 1366 1560 Q1389 1537 1389 1501 Q1389 1436 1354 1295 ZM1005 -42 Q1193 150 1275 412 Q1304 504 1326 654 Q1340 749 1341 787 Q1345 945 1382 973 Q1405 992 1431 992 Q1474 992 1514 957 Q1536 939 1536 882 Q1536 790 1522 670 Q1549 576 1590 465 Q1650 305 1705 211 Q1806 39 1941 -81 Q2004 -137 2004 -186 Q2004 -232 1970 -264 Q1944 -288 1908 -288 Q1793 -288 1622 -18 Q1533 123 1452 334 Q1419 220 1364 110 Q1258 -104 1123 -221 Q1038 -295 981 -295 Q937 -295 905 -261 Q879 -234 879 -202 Q879 -166 910 -133 L413 -133 Q329 -133 296 -120 Q203 -86 166 14 Q152 54 152 149 L152 1201 Q152 1298 166 1338 Q203 1439 296 1474 Q329 1486 413 1486 L934 1486 Q965 1486 988 1459 Q1013 1432 1013 1394 Q1013 1350 982 1322 Q960 1302 934 1302 L440 1302 Q336 1302 336 1198 L336 155 Q336 51 440 51 L921 51 Q967 51 992 8 Q1004 -14 1005 -42 ZM702 871 Q745 997 775 1124 Q804 1248 875 1248 Q919 1248 949 1216 Q972 1193 972 1162 Q972 1117 946 1042 Q937 1016 893 867 Q863 766 817 656 Q927 435 949 396 Q1008 294 1008 236 Q1008 206 977.5 179.5 Q947 153 911 153 Q893 153 872 167 Q844 185 791 307 Q788 314 738 416 L721 450 L691 393 Q604 227 568 182 Q514 115 465 115 Q424 115 392 151 Q366 179 366 208 Q366 233 409 296 Q536 481 616 652 Q540 799 419 1002 Q387 1055 387 1084 Q387 1104 399 1124 Q425 1169 478 1169 Q546 1169 640 987 Q646 977 702 871 Z" /><glyph glyph-name="uni6BDB" unicode="&#x6bdb;" d="M786 510 L786 783 L262 733 Q256 732 255 732 Q219 730 191 761 Q166 789 166 828 Q166 870 194 898 Q215 920 249 923 L786 975 L786 1236 Q728 1231 654 1227 Q544 1220 489 1215 Q390 1206 325 1206 Q250 1206 214 1245 Q189 1273 189 1310 Q189 1369 242 1385 Q292 1400 396 1402 Q617 1405 915 1437 Q1351 1483 1539 1553 Q1611 1580 1649 1580 Q1742 1580 1742 1465 Q1742 1424 1705 1403 Q1577 1329 1094 1270 L996 1258 L996 995 L1753 1069 Q1759 1069 1761 1069 Q1795 1069 1820 1041 Q1846 1011 1846 970 Q1846 926 1818 900 Q1797 881 1768 878 L996 803 L996 531 L1865 615 Q1871 615 1873 615 Q1908 615 1933 586 Q1959 557 1959 516 Q1959 474 1932 447 Q1911 425 1880 422 L996 337 L996 54 Q996 -4 1019 -23 Q1047 -47 1138 -51 Q1170 -53 1416 -57 L1456 -57 L1487 -58 Q1647 -58 1698 -10 Q1736 25 1739 136 Q1742 248 1775 274 Q1799 292 1837 292 Q1893 292 1924 260 Q1951 231 1951 148 Q1951 -82 1855 -173 Q1798 -226 1678 -242 Q1609 -251 1404 -251 Q1073 -251 977 -231 Q897 -213 854 -177 Q786 -120 786 19 L786 316 L193 259 L185 258 Q149 255 121 287 Q95 316 95 358 Q95 444 180 452 L786 510 Z" /><glyph glyph-name="uni6C64" unicode="&#x6c64;" d="M1583 757 Q1514 523 1381 316 Q1178 0 897 -166 Q775 -239 717 -239 Q671 -239 636 -200 Q609 -171 609 -138 Q609 -113 627 -92 Q650 -67 681 -49 L794 13 Q936 91 1085 250 Q1285 463 1391 757 L1240 757 Q1129 546 1017 427 Q901 302 796 233 Q729 188 698 188 Q661 188 630 223 Q602 255 602 291 Q602 325 634 359 Q648 373 730 432 Q904 555 1033 757 L757 757 Q708 757 693 789 Q675 829 675 877 Q675 948 829 1001 Q1087 1089 1423 1310 L773 1310 Q737 1310 711 1339 Q687 1366 687 1403 Q687 1444 718 1473 Q741 1495 773 1495 L1591 1495 Q1737 1495 1737 1380 Q1737 1301 1582 1180 Q1488 1106 1222 980 L1136 939 L1697 939 Q1823 939 1878 880 Q1920 836 1920 737 Q1920 668 1895 233 Q1866 -284 1524 -284 Q1480 -284 1406.5 -271 Q1333 -258 1284 -242 Q1213 -218 1213 -147 Q1213 -97 1242 -70 Q1261 -51 1291 -51 Q1304 -51 1443 -78 Q1476 -85 1509 -85 Q1622 -85 1660 66 Q1692 197 1707 429 Q1719 614 1719 658 Q1719 757 1636 757 L1583 757 ZM284 1538 Q323 1538 423 1473 Q644 1329 644 1247 Q644 1203 606 1169 Q574 1140 542 1140 Q510 1140 446 1194 Q359 1266 243 1346 Q177 1391 177 1434 Q177 1475 215 1511 Q243 1538 284 1538 ZM168 1063 Q205 1063 302 998 Q528 847 528 768 Q528 724 488 688 Q457 660 424 660 Q392 660 326 717 Q256 778 124 870 Q61 913 61 958 Q61 1000 94 1032 Q126 1063 168 1063 ZM444 529 Q490 529 524 498 Q555 468 550 420 Q545 364 460 96 Q421 -30 342 -170 Q288 -268 225 -268 Q177 -268 140 -229 Q115 -203 115 -176 Q115 -147 141 -98 Q274 151 339 410 Q368 529 444 529 Z" /><glyph glyph-name="uni6C99" unicode="&#x6c99;" d="M1369 1489 L1369 404 Q1369 366 1339 339 Q1310 313 1265 313 Q1215 313 1187 344 Q1165 368 1165 407 L1165 1489 Q1165 1530 1196 1557 Q1224 1583 1265 1583 Q1314 1583 1345 1549 Q1369 1523 1369 1489 ZM919 1305 Q964 1305 1001 1270 Q1024 1250 1024 1207 Q1024 1147 967 946 Q881 643 816 527 Q774 452 710 452 Q661 452 627 487 Q605 511 605 534 Q605 577 655 670 Q685 724 723 846 Q789 1057 804 1142 Q834 1305 919 1305 ZM1638 1311 Q1688 1306 1720 1265 Q1786 1183 1891 935 Q1897 921 1943 812 Q1974 738 1974 686 Q1974 650 1942 623 Q1907 593 1864 593 Q1803 593 1756 728 Q1676 961 1563 1149 Q1533 1199 1533 1230 Q1533 1259 1562 1283 Q1600 1315 1638 1311 ZM454 520 Q503 520 531 489 Q554 464 554 424 Q554 317 438 11 Q380 -142 328 -213 Q288 -268 244 -268 Q193 -268 157 -230 Q133 -205 133 -179 Q133 -151 158 -103 Q288 143 352 406 Q379 520 454 520 ZM178 1090 Q215 1090 312 1025 Q538 875 538 796 Q538 752 498 716 Q467 688 434 688 Q402 688 336 745 Q265 807 134 897 Q71 940 71 986 Q71 1027 104 1059 Q136 1090 178 1090 ZM1672 676 Q1717 676 1750 640 Q1782 607 1777 567 Q1764 465 1601 251 Q1460 65 1198 -88 Q1089 -151 1035 -171 Q825 -248 760.5 -265.5 Q696 -283 627 -283 Q589 -283 563 -253 Q535 -220 535 -176 Q535 -144 552 -122 Q578 -91 663 -68 Q834 -23 922 11 Q1192 115 1383 315 Q1479 414 1548 541 L1581 602 Q1621 676 1672 676 ZM295 1554 Q333 1554 433 1489 Q654 1345 654 1263 Q654 1219 616 1185 Q584 1156 552 1156 Q520 1156 456 1210 Q370 1281 253 1362 Q187 1407 187 1450 Q187 1491 225 1527 Q253 1554 295 1554 Z" /><glyph glyph-name="uni6CA1" unicode="&#x6ca1;" d="M1463 90 Q1625 -3 1804 -57 Q1892 -84 1917 -102 Q1973 -143 1973 -200 Q1973 -244 1945 -271 Q1921 -293 1889 -293 Q1828 -293 1634 -216 Q1434 -136 1284 -39 Q1065 -177 838 -257 Q777 -279 682 -296 Q640 -304 632 -304 Q598 -304 568 -271 Q539 -238 539 -194 Q539 -129 635 -100 Q1011 15 1114 87 Q1108 93 1101 99 Q922 255 824 448 Q796 505 787 524 L724 524 Q685 524 657 555 Q632 583 632 619 Q632 661 663 690 Q690 714 727 714 L1644 714 Q1731 714 1771 668 Q1807 627 1807 569 Q1807 439 1613 230 Q1543 154 1463 90 ZM1291 205 Q1335 235 1362 258 Q1559 423 1559 492 Q1559 524 1522 524 L1012 524 Q1014 519 1021 506 Q1068 403 1235 252 Q1260 229 1291 205 ZM1647 1299 L1647 1078 Q1647 1000 1665 981 Q1681 963 1738 963 Q1782 963 1859 973 Q1881 976 1897 976 Q1929 976 1948 953 Q1971 923 1971 886 Q1971 846 1941 816 Q1900 777 1719 777 Q1582 777 1530 804 Q1451 845 1451 984 L1451 1221 Q1451 1261 1431 1290 Q1414 1315 1283 1313 Q1162 1311 1109 1312 Q1050 1314 1031 1294 Q1015 1276 1015 1231 L1015 1182 Q1015 964 886 835 Q783 733 704 733 Q671 733 643 764 Q615 797 615 837 Q615 859 624 872 Q638 893 683 925 Q786 999 809 1085 Q824 1141 824 1223 L824 1318 Q824 1508 1017 1508 L1430 1508 Q1551 1508 1602 1451 Q1647 1401 1647 1299 ZM163 1066 Q200 1066 297 1001 Q523 850 523 771 Q523 727 483 691 Q452 663 419 663 Q387 663 321 720 Q249 783 119 873 Q56 916 56 961 Q56 1003 89 1035 Q121 1066 163 1066 ZM279 1541 Q317 1541 418 1476 Q639 1332 639 1250 Q639 1206 601 1172 Q569 1143 537 1143 Q505 1143 441 1197 Q356 1267 238 1349 Q172 1394 172 1437 Q172 1478 210 1514 Q238 1541 279 1541 ZM439 532 Q485 532 519 500 Q550 471 545 423 Q540 367 455 99 Q416 -27 337 -168 Q283 -265 220 -265 Q172 -265 135 -226 Q110 -200 110 -173 Q110 -144 136 -95 Q270 156 334 413 Q363 532 439 532 Z" /><glyph glyph-name="uni6CB9" unicode="&#x6cb9;" d="M1367 1287 L1670 1287 Q1747 1287 1778 1276 Q1860 1245 1889 1166 Q1900 1137 1900 1064 L1900 0 Q1900 -72 1889 -101 Q1859 -181 1778 -211 Q1747 -222 1670 -222 L873 -222 Q797 -222 766 -211 Q685 -181 655 -101 Q644 -72 644 0 L644 1064 Q644 1137 655 1166 Q684 1246 766 1276 Q797 1287 873 1287 L1169 1287 L1169 1499 Q1169 1544 1197 1568 Q1227 1594 1268 1594 Q1315 1594 1345 1562 Q1367 1539 1367 1499 L1367 1287 ZM1169 461 L845 461 L845 89 Q845 -26 922 -26 L1169 -26 L1169 461 ZM1367 461 L1367 -26 L1622 -26 Q1653 -26 1678 1 Q1698 22 1698 75 L1698 461 L1367 461 ZM1169 649 L1169 1091 L922 1091 Q891 1091 866 1064 Q845 1043 845 990 L845 649 L1169 649 ZM1367 649 L1698 649 L1698 994 Q1698 1032 1688 1049 Q1665 1091 1622 1091 L1367 1091 L1367 649 ZM280 1553 Q317 1553 418 1488 Q639 1344 639 1262 Q639 1218 601 1184 Q569 1155 537 1155 Q505 1155 441 1209 Q358 1278 238 1360 Q172 1406 172 1449 Q172 1490 210 1526 Q238 1553 280 1553 ZM163 1078 Q200 1078 297 1013 Q523 862 523 784 Q523 740 483 704 Q452 676 419 676 Q387 676 321 733 Q251 794 119 885 Q56 929 56 974 Q56 1015 89 1048 Q121 1078 163 1078 ZM444 544 Q490 544 526 510 Q554 483 551 440 Q545 365 464 142 Q351 -168 283 -226 Q251 -252 222 -252 Q174 -252 137 -213 Q111 -186 111 -159 Q111 -130 138 -80 Q272 161 340 426 Q371 544 444 544 Z" /><glyph glyph-name="uni6D32" unicode="&#x6d32;" d="M800 954 L800 1490 Q800 1534 831 1562 Q856 1585 888 1585 Q926 1585 952 1556 Q976 1529 976 1490 L976 969 L977 859 Q977 371 890 107 Q835 -59 747 -188 Q675 -293 606 -293 Q562 -293 528 -260 Q508 -239 508 -217 Q508 -199 523 -171 Q527 -163 593 -68 Q678 54 721 203 Q800 471 800 954 ZM1890 1497 L1890 -217 Q1890 -261 1860 -287 Q1835 -310 1800 -310 Q1760 -310 1732 -280 Q1708 -253 1708 -217 L1708 1497 Q1708 1539 1737 1565 Q1762 1588 1798 1588 Q1840 1588 1867 1558 Q1890 1533 1890 1497 ZM1414 1459 L1414 -154 Q1414 -198 1383 -227 Q1357 -250 1324 -250 Q1286 -250 1261 -222 Q1238 -196 1238 -159 L1238 1453 Q1238 1499 1269 1527 Q1294 1550 1329 1550 Q1367 1550 1392 1523 Q1414 1499 1414 1459 ZM153 1068 Q192 1065 264 1024 Q303 1002 399 927 Q501 846 501 790 Q501 744 463 708 Q436 683 407 683 Q387 683 322 728 L276 763 L256 779 Q183 837 169 846 Q100 891 81 913 Q59 938 59 962 Q59 1008 96 1042 Q126 1070 153 1068 ZM398 499 Q445 499 474 467 Q498 440 498 390 Q498 326 422 89 Q360 -104 322 -172 Q268 -267 206 -267 Q157 -267 121 -230 Q98 -206 98 -181 Q98 -154 119 -110 Q247 153 295 386 Q311 461 341 482 Q364 499 398 499 ZM1055 1071 Q1100 1071 1124 1025 Q1162 950 1212 754 Q1219 725 1229 643 Q1235 598 1235 586 Q1235 547 1210 525 Q1188 505 1158 505 Q1133 505 1116 520 Q1095 539 1081 623 Q1063 732 996 932 Q983 971 983 996 Q983 1018 993 1036 Q1013 1071 1055 1071 ZM1512 1080 Q1534 1080 1554 1064 Q1590 1035 1624 899 Q1631 868 1644 829 Q1690 681 1690 594 Q1690 556 1666 534 Q1644 515 1613 515 Q1588 515 1572 530 Q1549 552 1537 633 Q1524 714 1452 941 Q1439 982 1439 1012 Q1439 1040 1462 1061 Q1484 1080 1512 1080 ZM231 1550 Q264 1550 345 1498 Q580 1346 580 1268 Q580 1225 542 1190 Q511 1162 481 1162 Q456 1162 407 1201 Q290 1294 234 1330 Q127 1400 127 1450 Q127 1489 160 1521 Q191 1550 231 1550 ZM699 1076 Q732 1076 757 1053 Q781 1031 778 983 Q773 890 709 680 Q665 532 629 504 Q608 488 585 488 Q547 488 520 516 Q502 535 502 555 Q502 583 519 624 Q588 786 603 905 Q619 1035 659 1064 Q676 1076 699 1076 Z" /><glyph glyph-name="uni6E05" unicode="&#x6e05;" d="M895 34 L895 -211 Q895 -246 867 -271 Q839 -296 796 -296 Q747 -296 718 -264 Q697 -241 697 -211 L697 488 Q697 552 707 578 Q734 650 810 678 Q840 689 913 689 L1627 689 Q1699 689 1729 678 Q1806 650 1833 578 Q1843 552 1843 488 L1843 -66 Q1843 -208 1758 -256 Q1708 -284 1613 -284 Q1490 -284 1404 -243 Q1359 -221 1359 -167 Q1359 -88 1435 -88 Q1457 -88 1511 -105 Q1549 -117 1586 -117 Q1645 -117 1645 -34 L1645 34 L895 34 ZM895 170 L1645 170 L1645 284 L895 284 L895 170 ZM895 420 L1645 420 L1645 461 Q1645 539 1569 539 L971 539 Q942 539 917 512 Q895 488 895 433 L895 420 ZM1145 1437 L1145 1506 Q1145 1536 1173 1561 Q1205 1588 1248 1588 Q1295 1588 1326 1556 Q1346 1534 1346 1506 L1346 1437 L1845 1437 Q1931 1437 1931 1363 Q1931 1329 1906 1307 Q1884 1287 1845 1287 L1346 1287 L1346 1180 L1777 1180 Q1823 1180 1846 1154 Q1864 1134 1864 1106 Q1864 1072 1839 1050 Q1817 1030 1777 1030 L1346 1030 L1346 924 L1895 924 Q1940 924 1964 898 Q1982 878 1982 850 Q1982 816 1957 794 Q1935 774 1895 774 L621 774 Q580 774 557 800 Q538 822 538 849 Q538 881 563 904 Q584 924 621 924 L1145 924 L1145 1030 L759 1030 Q718 1030 696 1056 Q676 1078 676 1105 Q676 1137 701 1160 Q722 1180 759 1180 L1145 1180 L1145 1287 L698 1287 Q657 1287 634 1313 Q615 1335 615 1362 Q615 1395 640 1417 Q661 1437 698 1437 L1145 1437 ZM157 1064 Q193 1064 290 999 Q515 849 515 772 Q515 728 476 693 Q445 665 413 665 Q381 665 315 722 Q243 784 113 874 Q51 917 51 961 Q51 1002 84 1034 Q115 1064 157 1064 ZM437 531 Q482 531 514 497 Q537 474 537 443 Q537 322 411 -3 Q311 -260 217 -260 Q177 -260 138 -227 Q110 -202 110 -175 Q110 -144 135 -97 Q269 160 330 412 Q359 531 437 531 ZM272 1539 Q308 1539 406 1475 Q622 1336 622 1255 Q622 1212 584 1177 Q553 1149 522 1149 Q493 1149 434 1197 Q331 1280 231 1349 Q166 1393 166 1436 Q166 1476 203 1513 Q231 1539 272 1539 Z" /><glyph glyph-name="uni706B" unicode="&#x706b;" d="M1114 910 Q1128 869 1150 800 Q1217 590 1333 409 Q1539 88 1796 -34 Q1907 -87 1927 -123 Q1940 -146 1940 -168 Q1940 -219 1900 -256 Q1870 -283 1839 -283 Q1801 -283 1719 -245 Q1452 -123 1220 210 Q1127 344 1042 548 Q943 265 703 17 Q599 -90 465 -179 Q293 -294 221 -294 Q184 -294 150 -255 Q117 -218 117 -172 Q117 -149 131 -127 Q147 -100 236 -57 Q326 -13 457 91 Q731 309 839 601 Q870 686 890 812 Q919 997 919 1164 L919 1488 Q919 1529 951 1558 Q979 1584 1022 1584 Q1071 1584 1103 1550 Q1126 1524 1126 1493 L1126 1171 Q1126 1033 1114 910 ZM1714 1258 Q1759 1258 1795 1223 Q1823 1196 1820 1159 Q1815 1097 1751 931 Q1668 714 1608 633 Q1565 574 1522 574 Q1469 574 1429 615 Q1406 637 1406 659 Q1406 687 1459 781 Q1492 841 1549 975 Q1583 1055 1595 1096 Q1633 1220 1673 1245 Q1692 1258 1714 1258 ZM509 1265 Q554 1265 590 1231 Q621 1201 616 1155 Q609 1090 521 838 Q465 677 424 622 Q385 571 344 571 Q291 571 251 610 Q229 632 229 655 Q229 680 275 775 Q305 836 355 973 Q384 1055 395 1097 Q426 1224 466 1251 Q485 1265 509 1265 Z" /><glyph glyph-name="uni7096" unicode="&#x7096;" d="M554 996 Q589 1068 620 1146 Q650 1221 677 1239 Q693 1249 715 1249 Q759 1249 783 1221 Q802 1200 802 1168 Q802 1102 699 920 Q655 843 542 708 Q537 563 527 485 Q597 409 688 292 Q847 87 847 19 Q847 -22 814 -52 Q784 -78 750 -78 Q693 -78 618 63 Q566 159 486 260 Q454 129 405 19 Q264 -295 148 -295 Q105 -295 74 -262 Q50 -236 50 -203 Q50 -172 88 -118 Q201 43 244 140 Q364 408 364 939 L364 1506 Q364 1540 392 1565 Q420 1590 460 1590 Q504 1590 532 1559 Q554 1535 554 1506 L554 1036 Q554 1006 554 996 ZM1251 315 L1050 315 Q945 315 897 361 Q847 407 847 508 L847 909 Q847 960 875 984 Q902 1007 938 1007 Q980 1007 1009 977 Q1031 954 1031 909 L1031 583 Q1031 505 1109 505 L1251 505 L1251 1138 L894 1138 Q851 1138 827 1166 Q802 1196 802 1234 Q802 1278 832 1306 Q855 1328 894 1328 L1251 1328 L1251 1499 Q1251 1535 1280 1561 Q1309 1586 1347 1586 Q1391 1586 1421 1553 Q1444 1529 1444 1499 L1444 1328 L1841 1328 Q1887 1328 1914 1297 Q1938 1269 1938 1234 Q1938 1192 1906 1162 Q1880 1138 1841 1138 L1444 1138 L1444 505 L1591 505 Q1669 505 1669 583 L1669 910 Q1669 961 1697 985 Q1724 1008 1759 1008 Q1801 1008 1830 978 Q1853 955 1853 910 L1853 508 Q1853 408 1804 361 Q1756 315 1651 315 L1444 315 L1444 49 Q1444 -22 1470 -45 Q1502 -74 1625 -74 Q1724 -74 1748 -49 Q1776 -21 1784 78 Q1792 184 1808 213 Q1827 247 1879 247 Q1927 247 1956 215 Q1979 191 1979 143 Q1979 63 1956 -54 Q1932 -179 1854 -221 Q1790 -257 1649 -257 Q1385 -257 1315 -188 Q1251 -126 1251 11 L1251 315 ZM200 1190 Q280 1190 280 1060 Q280 847 230 676 Q200 575 132 575 Q98 575 76 598 Q60 614 60 639 Q60 660 86 744 Q95 773 108 859 Q126 968 124 1019 Q120 1147 153 1174 Q172 1190 200 1190 Z" /><glyph glyph-name="uni70E4" unicode="&#x70e4;" d="M1220 861 L821 861 Q779 861 754 889 Q732 915 732 949 Q732 964 739 982 Q718 940 695 902 Q675 868 671 861 Q595 723 542 723 Q540 723 534 723 Q527 556 515 470 Q568 408 614 348 Q796 106 796 27 Q796 -11 765 -39 Q736 -65 696 -65 Q676 -65 661 -56 Q636 -41 598 33 Q555 115 467 240 Q432 118 396 37 Q257 -277 142 -277 Q100 -277 69 -244 Q45 -217 45 -185 Q45 -154 83 -100 Q193 57 235 152 Q312 323 335 561 Q359 811 359 1069 L359 1503 Q359 1537 389 1564 Q418 1589 452 1589 Q492 1589 521 1556 Q544 1532 544 1503 L544 1054 L542 982 Q588 1064 623 1144 Q668 1247 722 1247 Q760 1247 786 1219 Q806 1197 806 1171 Q806 1119 755 1013 L746 995 Q773 1037 821 1037 L1141 1037 L1141 1214 L932 1214 Q891 1214 866 1242 Q844 1268 844 1301 Q844 1341 873 1367 Q898 1390 932 1390 L1141 1390 L1141 1495 Q1141 1533 1173 1562 Q1203 1588 1240 1588 Q1282 1588 1312 1555 Q1337 1528 1337 1495 L1337 1390 L1536 1390 Q1584 1390 1611 1360 Q1632 1336 1632 1303 Q1632 1288 1624 1267 Q1684 1346 1728 1417 Q1781 1505 1832 1505 Q1877 1505 1910 1469 Q1934 1442 1934 1413 L1934 1411 Q1934 1320 1680 1037 L1868 1037 Q1916 1037 1943 1007 Q1964 983 1964 951 Q1964 912 1935 885 Q1908 861 1868 861 L1506 861 Q1390 755 1293 680 L1820 680 Q1863 680 1890 651 Q1911 628 1911 596 Q1911 559 1884.5 533 Q1858 507 1820 507 L1282 507 Q1239 507 1227 497 Q1219 490 1213 471 Q1202 437 1198 425 Q1184 390 1184 371 Q1184 353 1241 353 L1628 353 Q1824 353 1824 173 Q1824 61 1795 -75 Q1768 -205 1680 -254 Q1607 -295 1429 -295 Q1063 -295 1063 -169 Q1063 -117 1099 -89 Q1114 -77 1133 -77 Q1161 -77 1213 -88 Q1325 -113 1446 -113 Q1550 -113 1575 -64 Q1618 21 1618 111 Q1618 180 1550 180 L1049 180 Q985 180 955 214 Q935 237 935 263 Q935 299 965 365 Q983 404 1012 481 Q948 443 896 418 Q768 357 724 357 Q693 357 665 389 Q636 421 636 462 Q636 517 735 564 Q951 666 1076 751 Q1140 795 1220 861 ZM1337 1214 L1337 1037 L1416 1037 Q1513 1132 1596 1233 Q1569 1214 1536 1214 L1337 1214 ZM203 1184 Q237 1184 259 1161 Q283 1136 283 1054 Q283 836 235 673 Q205 570 135 570 Q101 570 79 593 Q63 609 63 634 Q63 655 89 738 Q97 767 111 854 Q128 963 127 1014 Q123 1141 156 1168 Q174 1184 203 1184 Z" /><glyph glyph-name="uni70E7" unicode="&#x70e7;" d="M551 990 Q589 1067 617 1138 Q646 1214 674 1231 Q689 1241 711 1241 Q755 1241 779 1213 Q798 1192 798 1160 Q798 1138 757 1029 Q707 899 554 718 L541 703 Q536 580 524 483 Q586 412 662 305 Q797 115 797 46 Q797 9 766 -19 Q737 -44 699 -44 Q668 -44 652 -28 Q640 -17 605 46 Q531 175 477 251 Q443 128 404 40 Q265 -274 150 -274 Q107 -274 77 -241 Q53 -215 53 -183 Q53 -151 91 -97 Q202 62 244 155 Q320 328 343 564 Q367 815 367 1072 L367 1506 Q367 1540 397 1567 Q426 1592 460 1592 Q500 1592 529 1559 Q552 1535 552 1506 L552 1057 Q552 1007 551 990 ZM1130 1176 L885 1148 Q879 1147 875 1147 Q835 1147 808 1178 Q783 1206 783 1241 Q783 1277 809 1303 Q832 1327 867 1331 L1083 1354 Q1059 1470 1059 1510 Q1059 1539 1085 1562 Q1116 1589 1158 1589 Q1202 1589 1225 1545 Q1233 1530 1250 1461 L1258 1425 L1264 1397 L1270 1373 L1819 1432 Q1824 1432 1829 1432 Q1868 1432 1891 1405 Q1914 1379 1914 1343 Q1914 1267 1844 1259 L1320 1198 Q1361 1086 1423 985 Q1542 1052 1647 1143 Q1707 1196 1741 1196 Q1771 1196 1796 1168 Q1820 1139 1820 1106 Q1820 1062 1741.5 991 Q1663 920 1531 844 Q1631 740 1708 740 Q1728 740 1741 752 Q1766 776 1781 880 Q1791 956 1848 956 Q1892 956 1923 926 Q1943 906 1943 868 Q1943 753 1889 649 Q1840 556 1714 556 L1711 556 Q1617 556 1516 612 Q1429 661 1352 754 Q1009 618 862 618 Q821 618 799 644 Q774 675 774 715 Q774 749 793 769 Q817 794 900 807 Q1044 830 1249 905 Q1174 1038 1130 1176 ZM1249 350 Q1244 241 1231 167 Q1202 9 1103 -98 Q1035 -171 940 -228 Q834 -291 766 -291 Q724 -291 689 -253 Q663 -225 663 -190 Q663 -137 768 -87 Q936 -9 1007 102 Q1052 174 1061 350 L825 350 Q782 350 753 383 Q728 411 728 445 Q728 483 757 509 Q785 534 825 534 L1887 534 Q1925 534 1950 507 Q1973 480 1973 444 Q1973 401 1942 372 Q1918 350 1887 350 L1578 350 L1578 10 Q1578 -48 1597 -63 Q1621 -82 1668 -82 Q1750 -82 1782 -33 Q1799 -6 1807 72 Q1815 154 1880 154 Q1966 154 1966 48 Q1966 -79 1919 -163 Q1859 -269 1642 -269 Q1485 -269 1432 -209 Q1391 -162 1391 -58 L1391 350 L1249 350 ZM212 1187 Q292 1187 292 1057 Q292 839 244 676 Q214 573 144 573 Q110 573 88 596 Q72 612 72 638 Q72 659 98 741 Q107 771 120 857 Q137 966 136 1017 Q132 1144 164 1171 Q183 1187 212 1187 Z" /><glyph glyph-name="uni70E9" unicode="&#x70e9;" d="M965 889 Q860 802 807 802 Q773 802 746 833 Q719 865 719 901 Q719 927 750 957 Q784 989 927 1112 Q1109 1267 1223 1490 Q1278 1597 1329 1597 Q1373 1597 1407 1563 Q1434 1535 1434 1500 Q1434 1490 1430 1479 Q1611 1214 1921 1008 Q2002 954 2002 907 Q2002 864 1969 833 Q1943 809 1913 809 Q1815 809 1552 1062 Q1436 1173 1339 1310 Q1267 1196 1201 1121 Q1152 1064 1031 949 L1044 950 L1647 950 Q1682 950 1707 922 Q1731 894 1731 858 Q1731 816 1700 788 Q1677 766 1647 766 L1044 766 Q1009 766 984 794 Q960 822 960 859 Q960 873 965 889 ZM1292 391 Q1284 374 1237 271 Q1180 147 1070 -29 Q1417 -6 1597 19 Q1560 83 1529 127 Q1468 215 1468 246 Q1468 279 1500 307 Q1530 334 1564 334 Q1624 334 1710 205 Q1718 192 1813 28 Q1901 -123 1901 -187 Q1901 -223 1869 -251 Q1837 -279 1798 -279 Q1778 -279 1757 -267 Q1740 -256 1705 -180 Q1699 -168 1686 -145 Q1610 -162 1461 -180 Q1021 -232 873 -232 Q813 -232 792 -193 Q771 -154 771 -113 Q771 -76 825 -33 Q942 58 1072 360 Q1079 375 1086 391 L842 391 Q809 391 783 420 Q757 449 757 486 Q757 527 789 561 Q809 581 842 581 L1844 581 Q1883 581 1909 551 Q1934 524 1934 487 Q1934 443 1902 414 Q1876 391 1844 391 L1292 391 ZM545 973 Q573 1020 628 1152 Q672 1256 724 1256 Q762 1256 787 1229 Q806 1207 806 1177 Q806 1111 706 934 Q613 770 537 713 Q526 534 518 479 Q590 401 627 353 Q782 155 782 85 Q782 46 746 14 Q718 -12 687 -12 Q639 -12 589 75 Q533 172 473 256 Q442 140 399 42 Q261 -271 145 -271 Q103 -271 72 -238 Q48 -212 48 -179 Q48 -148 86 -94 Q196 63 238 158 Q315 328 338 567 Q362 816 362 1075 L362 1509 Q362 1544 390 1569 Q417 1593 455 1593 Q498 1593 525 1563 Q547 1538 547 1509 L547 1060 L545 973 ZM206 1190 Q285 1190 285 1060 Q285 847 235 676 Q205 575 138 575 Q104 575 82 598 Q66 614 66 639 Q66 660 91 744 Q100 773 114 859 Q131 968 130 1019 Q126 1146 158 1174 Q177 1190 206 1190 Z" /><glyph glyph-name="uni70ED" unicode="&#x70ed;" d="M1306 772 Q1310 769 1312 767 Q1449 662 1498 591 Q1511 572 1511 545 Q1511 496 1473 460 Q1451 438 1427 438 Q1387 438 1293 529 Q1275 546 1238 577 Q1182 461 1108 373 Q962 199 872 199 Q828 199 793 236 Q767 263 767 293 Q767 316 787 342 Q795 353 886 435 Q1006 541 1079 707 Q1045 734 960 790 Q896 833 896 874 Q896 919 931 952 Q953 974 978 974 Q1024 974 1136 899 Q1150 988 1161 1127 L980 1127 Q941 1127 915 1157 Q890 1186 890 1222 Q890 1264 923 1293 Q949 1317 980 1317 L1163 1317 L1163 1488 Q1163 1528 1191 1554 Q1216 1578 1259 1578 Q1351 1578 1351 1486 L1351 1317 L1551 1317 Q1656 1317 1698 1269 Q1741 1218 1741 1099 L1741 715 Q1741 525 1778 459 Q1785 447 1793 446 Q1807 444 1811 503 Q1812 518 1826 616 Q1837 696 1859 716 Q1879 735 1902 735 Q1932 735 1956 709 Q1977 686 1977 652 Q1977 627 1956 460 Q1944 362 1909 299 Q1888 263 1848 239 Q1813 218 1779 218 Q1724 218 1668 273 Q1554 384 1554 635 L1554 1051 Q1554 1099 1538 1114 Q1524 1127 1460 1127 L1349 1127 Q1339 927 1306 772 ZM635 720 L635 438 Q635 295 559 252 Q511 225 414 225 Q184 225 184 341 Q184 387 211 414 Q228 431 256 431 Q281 431 311 424 Q363 411 390 411 Q433 411 440 460 Q442 472 442 569 L442 656 Q309 613 293 609 Q252 600 190 600 Q98 600 98 692 Q98 728 117 755 Q137 781 211 796 Q266 808 442 859 L442 1126 L220 1126 Q178 1126 151 1157 Q127 1184 127 1219 Q127 1260 158 1289 Q185 1313 220 1313 L442 1313 Q442 1360 442 1396 Q441 1433 441 1452 Q441 1585 539 1585 Q582 1585 610 1555 Q635 1528 635 1478 L635 1313 L784 1313 Q817 1313 841 1285 Q867 1255 867 1217 Q867 1175 837 1147 Q815 1126 784 1126 L635 1126 L635 919 Q658 928 678 937 Q762 977 802 977 Q826 977 846 953 Q870 927 870 885 L870 883 Q870 832 783 784 Q723 752 635 720 ZM1184 171 Q1232 168 1267 124 Q1288 97 1318 23 Q1366 -100 1366 -176 Q1366 -215 1335 -241 Q1304 -267 1264 -267 Q1236 -267 1214 -250 Q1190 -233 1170 -160 Q1153 -98 1099 37 Q1085 71 1085 91 Q1085 119 1113 143 Q1148 173 1184 171 ZM421 196 Q463 196 499 161 Q529 132 523 94 Q511 12 362 -185 Q281 -292 208 -292 Q161 -292 129 -258 Q105 -232 105 -198 Q105 -177 111 -165 Q133 -120 214 -32 Q258 15 304 91 Q368 196 421 196 ZM1600 201 L1604 201 Q1673 201 1765 87 Q1917 -103 1917 -187 Q1917 -226 1882 -257 Q1853 -284 1816 -284 Q1763 -284 1720 -222 Q1697 -188 1629 -81 Q1609 -50 1576 -13 Q1499 74 1499 113 Q1499 148 1529 174 Q1559 201 1600 201 ZM769 156 Q816 152 841 121 Q868 85 892 -11 Q914 -98 914 -169 Q914 -225 879 -256 Q851 -281 812 -281 Q779 -281 755 -260 Q732 -241 722 -166 Q710 -87 683 9 Q671 51 671 78 Q671 107 698 130 Q732 159 769 156 Z" /><glyph glyph-name="uni7116" unicode="&#x7116;" d="M1730 264 Q1705 228 1664 228 Q1632 228 1614 252 Q1603 268 1570 379 L1570 381 L1533 491 L1527 507 Q1482 636 1473 662 Q1464 685 1464 700 Q1464 723 1488 744 Q1513 766 1545 766 Q1582 766 1607 719 Q1639 660 1696 465 Q1721 380 1730 343 L1730 1218 Q1730 1271 1710 1290 Q1694 1304 1661 1304 L1214 1304 Q1176 1304 1152 1331 Q1127 1358 1127 1400 Q1127 1489 1214 1489 L1715 1489 Q1818 1489 1863 1438 Q1906 1390 1906 1284 L1906 -57 Q1906 -207 1823 -253 Q1762 -286 1657 -286 Q1399 -286 1399 -157 Q1399 -121 1427 -95 Q1448 -75 1475 -75 Q1499 -75 1552 -87 Q1600 -98 1649 -98 Q1679 -98 1697 -86 Q1730 -65 1730 4 L1730 264 ZM877 273 Q881 289 890 322 Q910 393 931 529 Q951 662 953 675 Q961 755 1020 755 Q1091 755 1091 678 Q1091 544 1028 282 Q1000 168 935 168 Q894 168 877 206 L877 -219 Q877 -257 849 -282 Q824 -304 788 -304 Q748 -304 723 -277 Q701 -253 701 -219 L701 14 Q673 -35 622 -35 Q579 -35 534 50 Q493 128 432 215 Q393 73 329 -53 Q218 -273 133 -273 Q94 -273 65 -242 Q42 -217 42 -187 Q42 -158 77 -103 Q168 41 199.5 105.5 Q231 170 254 256 Q328 532 328 1072 L328 1507 Q328 1541 358 1568 Q386 1592 418 1592 Q456 1592 484 1560 Q507 1535 507 1507 L507 1046 Q519 1072 553 1155 Q593 1252 642 1252 Q672 1252 693 1230 Q711 1209 711 1183 Q711 1182 710 1176 Q736 1219 786 1219 Q828 1219 856 1189 Q877 1166 877 1137 L877 273 ZM701 102 L701 1124 Q673 1027 610 925 Q528 792 501 764 Q493 556 477 439 Q644 234 701 102 ZM1109 190 L1109 845 Q1109 897 1136 921 Q1159 941 1188 941 Q1219 941 1240 917 Q1264 889 1264 845 L1264 251 Q1264 185 1326 185 Q1364 185 1388 198 Q1421 216 1425 307 Q1429 396 1492 396 Q1564 396 1564 322 Q1564 170 1529 105 Q1472 2 1317 2 Q1109 2 1109 190 ZM196 1187 Q281 1187 281 1059 Q281 996 265 852 Q233 575 133 575 Q99 575 78 597 Q63 613 63 637 Q63 657 90 744 Q101 781 114 859 Q134 975 133 1016 Q130 1149 161 1175 Q175 1187 196 1187 ZM825 1574 Q871 1569 947 1482 Q1069 1342 1069 1288 Q1069 1254 1032 1221 Q1002 1194 969 1194 Q925 1194 868 1280 Q827 1342 777 1398 Q729 1452 729 1481 Q729 1517 762 1547 Q796 1577 825 1574 ZM1234 1223 Q1274 1226 1350 1136 Q1479 983 1479 915 Q1479 874 1445 841 Q1424 821 1398 821 Q1371 821 1347 843 Q1336 853 1308 898 Q1283 939 1199 1046 Q1152 1105 1152 1134 Q1152 1186 1196 1212 Q1212 1221 1234 1223 Z" /><glyph glyph-name="uni714E" unicode="&#x714e;" d="M843 462 L395 462 L395 250 Q395 214 372 187 Q346 157 307 157 Q271 157 243 184 Q216 212 216 250 L216 938 Q216 1034 263 1082 Q309 1129 419 1129 L833 1129 Q1022 1129 1022 945 L1022 401 Q1022 286 985 235 Q934 163 810 163 Q616 163 616 266 Q616 300 638 324.5 Q660 349 692 349 Q711 349 740 344 Q776 338 795 338 Q817 338 827 347 Q843 362 843 426 L843 462 ZM843 614 L843 711 L395 711 L395 614 L843 614 ZM843 863 L843 871 Q843 945 818 960 Q800 971 772 971 L462 971 Q421 971 406 951 Q395 936 395 886 L395 863 L843 863 ZM1345 1213 L163 1213 Q127 1213 103 1240 Q81 1265 81 1297 Q81 1336 109 1362 Q132 1383 163 1383 L563 1383 Q558 1389 556 1392 Q526 1429 513 1447 Q489 1481 489 1517 Q489 1548 513 1570 Q537 1592 573 1592 Q613 1592 653 1551 Q698 1505 777 1383 L1258 1383 Q1313 1464 1346 1521 Q1385 1589 1434 1589 Q1476 1589 1502 1559 Q1523 1536 1523 1506 Q1523 1460 1472 1383 L1878 1383 Q1923 1383 1949 1354 Q1970 1331 1970 1299 Q1970 1261 1942 1236 Q1917 1213 1878 1213 L1355 1213 L1353 1211 L1345 1213 ZM1640 190 Q1690 174 1748 101 Q1915 -108 1915 -196 Q1915 -225 1886 -250 Q1854 -277 1812 -277 Q1771 -277 1736 -238 Q1712 -212 1652 -110 Q1622 -59 1578 -9 Q1510 70 1510 109 Q1510 160 1575 186 Q1468 185 1372 214 Q1261 247 1261 319 Q1261 356 1289 378 Q1312 397 1347 397 Q1365 397 1447 378 Q1516 362 1576 362 Q1609 362 1618 373 Q1634 393 1634 448 L1634 1066 Q1634 1111 1663 1142 Q1690 1172 1727 1172 Q1758 1172 1784 1149 Q1820 1117 1820 1066 L1820 428 Q1820 285 1755 233 Q1713 200 1640 190 ZM1371 1003 L1371 542 Q1371 483 1335 455 Q1309 435 1274 435 Q1185 435 1185 542 L1185 1003 Q1185 1063 1227 1096 Q1251 1114 1279 1114 Q1308 1114 1332 1094 Q1371 1062 1371 1003 ZM1183 147 Q1235 144 1265 104 Q1283 81 1318 -9 Q1364 -127 1364 -188 Q1364 -221 1333 -247 Q1300 -275 1258 -275 Q1201 -275 1179 -199 Q1146 -87 1100 19 Q1086 51 1086 72 Q1086 95 1112 118 Q1149 149 1183 147 ZM772 134 Q814 129 834 102 Q859 70 887 -32 Q910 -115 910 -173 Q910 -219 874 -252 Q842 -280 802 -280 Q761 -280 743 -251 Q730 -228 719 -161 Q707 -82 684 -17 Q668 31 668 61 Q668 84 693 106 Q732 139 772 134 ZM418 190 Q461 192 501 152 Q529 124 524 91 Q512 11 362 -182 Q280 -287 211 -287 Q163 -287 130 -251 Q106 -225 106 -196 Q106 -150 212 -40 Q264 14 307 88 Q367 188 418 190 Z" /><glyph glyph-name="uni7247" unicode="&#x7247;" d="M586 1070 L1150 1070 L1150 1491 Q1150 1533 1182 1561 Q1213 1588 1251 1588 Q1297 1588 1329 1552 Q1354 1525 1354 1491 L1354 1070 L1810 1070 Q1856 1070 1882 1041 Q1906 1014 1906 974 Q1906 929 1875 902 Q1847 877 1810 877 L586 877 Q586 724 577 577 L1416 577 Q1485 577 1514 567 Q1589 539 1617 463 Q1627 435 1627 366 L1627 -198 Q1627 -254 1595 -281 Q1565 -307 1525 -307 Q1478 -307 1448 -275 Q1423 -249 1423 -198 L1423 306 Q1423 384 1344 384 L557 384 Q524 153 455 -30 Q399 -179 347 -239 Q306 -285 256 -285 Q206 -285 176 -247 Q154 -220 154 -190 Q154 -160 196 -86 Q295 88 340 337 Q383 571 383 1004 L383 1448 Q383 1490 415 1518 Q446 1545 484 1545 Q529 1545 561 1509 Q586 1482 586 1448 L586 1070 Z" /><glyph glyph-name="uni7248" unicode="&#x7248;" d="M1171 773 L1171 755 Q1171 282 1073 13 Q969 -271 871 -271 Q813 -271 779 -214 Q766 -292 689 -292 Q597 -292 597 -184 L597 359 Q597 437 518 437 L378 437 Q362 183 327 34 Q277 -184 225 -242 Q187 -283 143 -283 Q104 -283 76 -254 Q57 -235 57 -210 Q57 -174 82 -115 Q179 115 196 470 Q201 577 201 876 L201 1451 Q201 1489 230 1514 Q259 1539 295 1539 Q335 1539 362 1509 Q385 1485 385 1451 L385 1051 L579 1051 L579 1489 Q579 1536 610 1562 Q638 1587 672 1587 Q711 1587 740 1556 Q763 1531 763 1489 L763 1051 L842 1051 Q888 1051 912 1023 Q934 997 934 960 Q934 916 904 891 Q877 867 842 867 L385 867 L382 624 L575 624 Q645 624 672 614 Q733 593 763 535 Q781 499 781 419 L781 -137 Q791 -116 871 31 Q982 233 982 749 L982 1231 Q982 1384 1044 1438 Q1074 1465 1112 1475 Q1157 1486 1291 1485 Q1400 1485 1584 1509 Q1698 1524 1758 1542 Q1807 1558 1833 1558 Q1864 1558 1889 1529 Q1915 1500 1915 1462 Q1915 1399 1859 1372 Q1799 1344 1570 1318 Q1431 1302 1254 1303 Q1196 1303 1183 1266 Q1182 1264 1169 1248 Q1168 1246 1168 1240 L1171 1192 L1171 987 L1742 987 Q1900 987 1900 839 Q1900 592 1625 163 Q1741 16 1870 -71 Q1939 -118 1955 -139 Q1976 -167 1976 -192 Q1976 -236 1941 -270 Q1918 -292 1890 -292 Q1814 -292 1637 -132 Q1568 -69 1506 8 Q1437 -72 1352 -149 Q1188 -298 1122 -298 Q1085 -298 1055 -264 Q1029 -236 1029 -202 Q1029 -166 1062 -128 Q1077 -111 1153 -51 Q1260 32 1387 180 Q1243 434 1171 773 ZM1508 346 Q1568 438 1600 502 Q1695 695 1695 770 Q1695 803 1642 803 L1345 803 Q1402 553 1508 346 Z" /></font>
</defs>
</svg>
